<?xml version="1.0" encoding="UTF-8"?><svg id="leerkracht" xmlns="http://www.w3.org/2000/svg" xmlns:xlink="http://www.w3.org/1999/xlink" viewBox="0 0 200 280"><defs><style>.cls-1{fill:#fa5066;}.cls-2{fill:#f3aa2e;}.cls-3{fill:#fa8880;}.cls-4{fill:#fa9992;}.cls-5{fill:#fa6d64;}.cls-6{fill:#fa8982;}.cls-7{fill:#fff;}.cls-8{fill:#7facc4;}.cls-9{fill:#8ac1ce;}.cls-10{fill:#b3b3b3;}.cls-11{fill:#a8cde0;}.cls-12{fill:#db6860;}.cls-13{fill:#d98a1a;}.cls-14{fill:#1a6d99;}.cls-15{fill:#1b6891;}.cls-16{fill:#1b455c;}.cls-17{fill:#6ea6c4;}.cls-18{fill:#99bacc;}.cls-19{fill:#6f96ab;}.cls-20{fill:#38210b;}.cls-21{fill:#598eab;}.cls-22{fill:#4d2807;}.cls-23{fill:#613814;}.cls-24{fill:#4d7b94;}.cls-25{fill:#2594cf;}.cls-26{clip-path:url(#clippath-2);}.cls-27{fill:url(#Naamloos_verloop_11);}.cls-28{fill:url(#Naamloos_verloop_15);}</style><linearGradient id="Naamloos_verloop_11" x1="56.44" y1="261.39" x2="56.44" y2="191.38" gradientTransform="matrix(1, 0, 0, 1, 0, 0)" gradientUnits="userSpaceOnUse"><stop offset="0" stop-color="#136a99"/><stop offset=".65" stop-color="#1e84ba"/><stop offset="1" stop-color="#2594cf"/></linearGradient><clipPath id="clippath-2"><path class="cls-4" d="M51.03,158.51c-2.37-2.69-5.98-4.87-8.51-4.54-3.84,.49-5.41,4.3-4.94,7.94,.5,3.85,3.28,7.53,8.09,6.91,.88-.11,1.83-.37,2.85-.8,.39-3.66,2.09-5.85,2.51-9.5Z"/></clipPath><linearGradient id="Naamloos_verloop_15" x1="34.1" y1="212.32" x2="77.54" y2="212.32" gradientTransform="matrix(1, 0, 0, 1, 0, 0)" gradientUnits="userSpaceOnUse"><stop offset="0" stop-color="#2390c9" stop-opacity=".5"/><stop offset=".35" stop-color="#2391ca" stop-opacity=".66"/><stop offset="1" stop-color="#2594cf"/></linearGradient></defs><path class="cls-22" d="M49.74,179.66c-.88,.27-.93-.38-1.96-.06-2.48,.78-6.58-4.1-12.42-12.01-9.47-12.83,2.21-43.33,18.8-46.57,15.29-2.99,34.48,7.67,36.3,21.82,1.73,13.4-23.52,29.17-31.32,33.27-2.99,1.58-6.18,2.57-9.4,3.55Z"/><path class="cls-4" d="M99.48,254.8c-.85,0-1.65-.54-1.94-1.39l-.09-.26c-.44-1.29-.99-2.9-.89-4.57,.14-2.28,1.51-4,3.85-4.86,1.06-.39,2.24,.16,2.63,1.22,.39,1.06-.16,2.24-1.22,2.63-1.26,.46-1.63,.95-.5,4.26l.09,.27c.36,1.07-.21,2.24-1.28,2.6-.22,.07-.44,.11-.66,.11Z"/><path class="cls-4" d="M105.9,256.59c-.17,0-.35-.02-.52-.07-1.09-.29-1.75-1.41-1.46-2.5,.53-2.03-1.01-5.85-1.97-6.79-.81-.79-.82-2.09-.02-2.9,.79-.81,2.09-.82,2.9-.02,1.86,1.83,4.03,7.06,3.06,10.76-.24,.92-1.07,1.53-1.98,1.53Z"/><path class="cls-4" d="M109.93,252.61c-.99,0-1.86-.72-2.02-1.73-.27-1.71-1.28-3.53-2.53-4.85-.41,.07-.85,0-1.24-.19-.25-.12-.46-.29-.63-.48-.11-.11-.4-.4-.62-.63-.22-.23-.46-.46-.64-.65-.09-.1-.17-.18-.23-.24-1.12-1.17-.49-2.35-.35-2.58,.49-.8,1.47-1.17,2.37-.88,3.74,1.17,7.22,5.5,7.91,9.85,.18,1.12-.58,2.17-1.7,2.35-.11,.02-.22,.03-.33,.03Zm-6.87-8.13c.07,.3,.21,.59,.41,.84-.2-.24-.34-.53-.41-.84Z"/><path class="cls-4" d="M86.65,242.99c.14-.36,.22-1.6,1.04-3.18,2.02-3.9,5.75-1.43,10.27-1.51,1.87-.04,6.34,1.54,9.61,4.75,.92,.9-1.44,.43-2.04,1.6s-3.86,3.62-8.19,2.07c-2.59-.93-8.02-3.11-10.68-3.72Z"/><path class="cls-6" d="M97.85,238.6l2.18,.37c-1.89,2.19-2.85,4.43-3.13,6.69l-2.92-.92,3.86-6.14Z"/><path class="cls-15" d="M96.14,247.2c-6.14,.83-22.83-2.28-31.32-6.92-7.52-4.12,2.27-16.47,6.74-13.71,4.99,3.08,21.6,10.77,29.3,11.61-2.57,1.43-4.87,5.28-4.73,9.02Z"/><path class="cls-27" d="M33.02,261.39s-1.23-22.19-1.23-42.48c0-3.71-.97-28.58,25.23-27.49,5.11,.21,13.19,4.6,16.1,8.27,1.33,1.68,.92,1.92,1.72,8.91,.18,1.57,4.76,7.62,5.25,9.95,.94,4.5-3.66,7.52-3.68,7.79-.79,8.65,.41,14.39,4.68,34.05l-48.06,1.01Z"/><path class="cls-4" d="M62.6,195.95l.54-7.31c.22-1.82,.55-3.62,1.08-5.4-3.59-1.89-7.46-2.99-11.24-4.44,0,.33,0,.67,0,1.02,0,1.2,.02,2.46,.02,3.75l-.33,9.85c1.59,6.15,10.59,9.06,9.93,2.54Z"/><path class="cls-5" d="M63.3,187.43c-1.92-1.04-9.28-4.99-10.32-5.27,0,.46,0,.93,0,1.4l-.09,2.71c2.87,2.74,6.2,4.82,9.95,6.29l.29-3.92c.05-.4,.1-.81,.16-1.21Z"/><path class="cls-4" d="M44.14,177.07c5.5,8.95,22.68,13.57,32.17,12.35h.01c10.64-1.38,17.74-13.21,18.09-30.18,.44-21.16-16.15-29.16-31.86-27.14-10.69,1.38-20.92,14.76-18.65,32.39,.49,3.82-1.35,9.24,.25,12.58Z"/><path class="cls-3" d="M82.22,157.8c-1.21,2.84-2.59,7.79-2.51,10.31,.07,2.13,1.32,4.78,1.36,5.84,.03,.94-.72,1.31-1.73,1.34-1.28,.04-5.18-.63-5.24-2.41-.05-1.43,5.01-16.13,6.46-16.18,.72-.02,1.46,.54,1.66,1.1Z"/><path class="cls-23" d="M75.65,156.65c-1.65-.86-6.42-1.9-8.25-2.82,3.48-.06,7.81,.65,8.69,2.37,.15,.29-.16,.6-.44,.45Z"/><path class="cls-23" d="M92.4,159.83c.03,.06,.12,.02,.11-.04-.09-.51-.21-.71-.37-1.24-.61-2.14-3.59-5-6.53-4.3-.46,.55,5.01,1.23,6.79,5.59Z"/><path class="cls-6" d="M86.46,146.03c0-.52-5.83-8.49-12.04-13.48-3.82-.84-7.87-.97-11.87-.46-10.69,1.38-20.92,14.76-18.65,32.39,.49,3.82-1.35,9.24,.25,12.58,2.89,4.71,9.02,8.22,15.56,10.31-3.74-2.54-8.85-6.82-8.85-14.35,0-14.52,13.1-10.73,17.36-25,.33-1.11-.13-3.67,1.54-3.67,1.89,0,16.7,3,16.7,1.68Z"/><path class="cls-22" d="M62.71,127.08c-13.06,2.27-21.68,14.38-26.48,25.88,4.52,3.99,10.64,6.07,16.24,5.35,11.45-1.47,15.2-12.89,13.73-24.29-.42-3.24-1.48-5.93-3.49-6.94"/><path class="cls-22" d="M97.66,154.17c-.72,.21,7.56-29.5-27.16-30.12-4.03-.07-6.06,2.62-5.48,7.16,1.61,12.47,11.17,13.84,17.23,17.62"/><rect class="cls-21" x="7.61" y="260.71" width="177.49" height="1.32"/><g><path class="cls-4" d="M51.03,158.51c-2.37-2.69-5.98-4.87-8.51-4.54-3.84,.49-5.41,4.3-4.94,7.94,.5,3.85,3.28,7.53,8.09,6.91,.88-.11,1.83-.37,2.85-.8,.39-3.66,2.09-5.85,2.51-9.5Z"/><g class="cls-26"><path class="cls-6" d="M58.69,186.63c-3.72-2.41-7.84-5.21-7.84-13.6,0-14.52,13.1-10.73,17.36-25,.33-1.11-.13-3.67,1.54-3.67,1.89,0,5.44,3.1,8.05,3.1,1.51,0,2.5-1.16,2.5-2.48,0-.76-6.3-16.39-14.2-16.39-6.03,0-10.98,6.35-15.47,9.51-8.84,6.21-16.72,13.08-16.72,24.3s8.74,24.32,21.87,24.32c.98,0,1.95-.04,2.9-.08Z"/></g></g><ellipse class="cls-20" cx="71.05" cy="160.4" rx="1.74" ry=".92" transform="translate(-101.68 191.08) rotate(-76.18)"/><ellipse class="cls-20" cx="86.17" cy="165.78" rx="1.74" ry=".92" transform="translate(-95.4 209.86) rotate(-76.18)"/><path class="cls-1" d="M46.68,163.16c-.53-.03-1.05-.18-1.43-.47-.38-.29-.57-.73-.57-1.19,0-.23,.02-.45,.07-.71,.04-.25,.07-.51,.08-.77,0-.52-.02-1.05-.23-1.57-.1-.26-.25-.51-.47-.72-.22-.21-.51-.38-.83-.44-.64-.13-1.28,.08-1.76,.41-.98,.66-1.48,1.82-1.3,2.86v.02c.18,.68,.37,1.35,.58,2.02-.06-.7-.15-1.4-.24-2.09v.02c0-.47,.11-.94,.33-1.35,.23-.41,.56-.77,.96-1.01,.39-.24,.86-.38,1.26-.28,.4,.09,.71,.39,.88,.8,.17,.41,.25,.88,.26,1.35,0,.24,0,.48-.01,.72-.02,.24-.04,.52,0,.78,.06,.53,.35,1.07,.85,1.34,.48,.28,1.05,.33,1.58,.27Z"/><path class="cls-22" d="M49.34,125.49s-1.28-13.32-10.48-12.33c-9.21,.99-17.28,10.2-17.85,14.88s-.14,10.48-2.69,17.99c-.92,2.72-5.95,9.49-5.95,9.49,0,0,7.25-.24,12.18-2.27,13.46-5.53,18.56-14.88,18.56-14.88l6.23-12.89Z"/><g><rect class="cls-9" x="133.28" y="156.98" width="52.85" height="20.45" rx="9.98" ry="9.98" transform="translate(12.94 -11.47) rotate(4.29)"/><g><circle class="cls-7" cx="145.52" cy="166.14" r="3.78"/><circle class="cls-7" cx="159.7" cy="167.2" r="3.78"/><circle class="cls-7" cx="173.89" cy="168.27" r="3.78"/></g><polygon class="cls-9" points="166.56 175.21 176.85 187.18 177.79 174.7 166.56 175.21"/></g><g><rect class="cls-2" x="105.31" y="124.49" width="83.45" height="32.29" rx="14.02" ry="14.02" transform="translate(304.23 269.82) rotate(175.69)"/><polygon class="cls-2" points="136.22 153.29 119.98 172.18 118.49 152.49 136.22 153.29"/></g><polygon class="cls-7" points="113.05 136.52 178.81 131.26 179.06 134.49 113.25 139.15 113.05 136.52 113.05 136.52"/><polygon class="cls-7" points="113.8 146.46 157.37 142.14 157.72 146.85 114 149.1 113.8 146.46 113.8 146.46"/><g><g><polygon class="cls-9" points="166.93 99.82 35.63 84.72 44.05 11.54 176.23 22.31 166.93 99.82"/><g><polygon class="cls-8" points="166.93 99.82 35.63 84.72 37.21 72.49 167.46 89.52 166.93 99.82"/><rect class="cls-7" x="58.95" y="75.58" width="1.17" height="11.83" transform="translate(9.7 -6.27) rotate(6.56)"/><polygon class="cls-7" points="50.32 84.8 48.17 84.72 49.19 75.84 51.82 76.14 50.32 84.8"/><polygon class="cls-7" points="46.22 84.49 43.59 84.19 44.62 75.31 46.73 75.74 46.22 84.49"/><polygon class="cls-21" points="95.35 91.59 59.42 87.45 60.78 75.64 96.22 80.64 95.35 91.59"/></g></g><g><path class="cls-7" d="M113.72,50.53l-10.17-7.55c-1.26-.94-3.07-.15-3.25,1.41l-1.45,12.58c-.18,1.56,1.4,2.73,2.84,2.11l11.62-5.04c1.44-.63,1.67-2.58,.4-3.52Z"/><path class="cls-7" d="M106.02,71.57c-.78,0-1.56-.04-2.34-.13-5.35-.61-10.13-3.27-13.48-7.49s-4.85-9.48-4.23-14.83c.61-5.35,3.27-10.13,7.49-13.48,4.22-3.35,9.48-4.85,14.83-4.23,11.04,1.27,18.98,11.28,17.71,22.32h0c-.61,5.35-3.28,10.13-7.49,13.48-3.6,2.86-7.96,4.37-12.49,4.37Zm-.08-38.32c-4.08,0-8.01,1.36-11.26,3.94-3.8,3.02-6.2,7.33-6.75,12.15-.55,4.82,.8,9.57,3.82,13.37,3.02,3.8,7.33,6.2,12.15,6.75,4.82,.55,9.57-.8,13.37-3.82,3.8-3.02,6.2-7.33,6.75-12.15h0c1.14-9.95-6.02-18.98-15.97-20.12-.71-.08-1.41-.12-2.11-.12Z"/></g></g><circle class="cls-21" cx="168.9" cy="101.25" r="26.22"/><path class="cls-7" d="M171.52,105.61c-.14,.32-.25,.77-.35,1.33s-.63,.99-1.22,.94l-3.24-.31c-.65-.06-1.11-.66-1-1.3,.26-1.65,.57-2.81,.93-3.5,.44-.84,1.44-1.76,3.01-2.76l1.59-1.02c.52-.32,.95-.68,1.29-1.09,.61-.69,.96-1.49,1.05-2.38,.1-1.03-.12-2-.64-2.9-.52-.9-1.58-1.43-3.18-1.58s-2.74,.27-3.49,1.25c-.54,.7-.91,1.44-1.12,2.21-.14,.54-.64,.9-1.2,.85l-3.64-.35c-.67-.06-1.14-.7-.99-1.35,.68-3.17,2.22-5.37,4.61-6.59,1.7-.88,3.71-1.21,6.04-.99,3.06,.29,5.54,1.26,7.42,2.92,1.89,1.66,2.69,3.92,2.42,6.79-.17,1.76-.75,3.2-1.74,4.33-.58,.68-1.66,1.52-3.23,2.52l-1.55,.98c-.84,.54-1.43,1.2-1.77,1.99Zm-3.82,10.79l-.18-.02c-1.62-.15-2.81-1.59-2.66-3.22h0c.15-1.62,1.59-2.81,3.22-2.66l.18,.02c1.62,.15,2.81,1.59,2.66,3.22h0c-.15,1.62-1.59,2.81-3.22,2.66Z"/><path class="cls-14" d="M44.77,234.53c-1.02-5.13,7.3-5.88,12.35-6.19-7.4-.47-13.97-7.37-18.13-13.17-1.48-2.04-2.83-4.14-4.06-6.34l-.28-.51c-.6-1.14-.68-2.27-.4-3.3-.06,.03-.12,.08-.18,.14-.94,.94-1.86,7.02-1.95,8.59-.7,11.95-.59,47.86-.59,47.86l44.73-.57s-21.58-7.72-26.21-12.04c-5.08-4.74-4.04-8.25-5.27-14.47Z"/><g><polygon class="cls-18" points="60 260.88 60.82 256.14 106.42 256.14 106.92 260.88 60 260.88"/><polygon class="cls-24" points="106.92 260.88 106.42 256.14 173.76 256.14 174.24 260.45 106.92 260.88"/><polygon class="cls-11" points="108.37 257.04 128.28 202.99 126.78 201.92 106.29 256.14 108.37 257.04"/><polygon class="cls-17" points="128.41 202.48 194.74 202.48 175.35 257.16 108.37 257.04 128.41 202.48"/><polygon class="cls-19" points="192.75 201.92 126.78 201.92 128.28 202.99 194.74 202.48 192.75 201.92"/><ellipse class="cls-9" cx="153.74" cy="232.17" rx="10" ry="6.83" transform="translate(-116.41 299.67) rotate(-70.52)"/><rect class="cls-24" x="91.2" y="258.23" width="11.41" height="1.48"/><rect class="cls-24" x="78.76" y="258.23" width="5.61" height="1.48"/><rect class="cls-24" x="69.04" y="258.23" width="5.61" height="1.48"/></g><g><path class="cls-16" d="M54.48,247.72l-45.79-.92c-1.8,0-2.09,14.06-.29,14.06H54.48v-13.14Z"/><path class="cls-7" d="M54.48,249.01H14.49v10.6H54.48c1.54-3.64,1.74-7.18,0-10.6Z"/><path class="cls-10" d="M16.19,251.6c14.01-.27,28.17-.27,42.18,0-14.01,.27-28.17,.27-42.18,0h0Z"/><path class="cls-10" d="M16.19,254.47c13.81-.27,27.78-.27,41.59,0-13.81,.27-27.78,.27-41.59,0h0Z"/><path class="cls-10" d="M16.19,257.34c11.73-.27,23.59-.27,35.33,0-11.73,.27-23.59,.27-35.33,0h0Z"/></g><g><path class="cls-13" d="M54.48,234.71l-21.42-1.15-24.37,.23c-1.8,0-2.09,14.06-.29,14.06H54.48v-13.14Z"/><path class="cls-7" d="M54.48,235.47h-21.54c-.94,3.11-.78,6.71,0,10.6h21.54c1.54-3.64,1.74-7.18,0-10.6Z"/><path class="cls-10" d="M35.05,238.48c7.54-.27,15.19-.27,22.73,0-7.54,.27-15.19,.27-22.73,0h0Z"/><path class="cls-10" d="M33.64,240.82c7.54-.27,15.19-.27,22.73,0-7.54,.27-15.19,.27-22.73,0h0Z"/><path class="cls-10" d="M34.81,243.52c7.54-.27,15.19-.27,22.73,0-7.54,.27-15.19,.27-22.73,0h0Z"/><rect class="cls-25" x="11.03" y="236.64" width="1.09" height="9.3"/><rect class="cls-25" x="14.86" y="236.64" width="1.09" height="9.3"/><rect class="cls-25" x="18.68" y="236.64" width="1.09" height="9.3"/></g><path class="cls-12" d="M78.56,182.05s-.09-.02-.13-.05c-4.52-3.99-8.26-6.58-11.43-7.93-.1-.04-.15-.16-.1-.26s.16-.15,.26-.1c3.2,1.37,6.98,3.99,11.54,8,.08,.07,.09,.2,.02,.28-.04,.04-.09,.07-.15,.07Z"/><path class="cls-6" d="M70.47,199.31c.34-.05,6.4-.45,4.76-.7-.38-.06,4.16-4.04,2.35-9.09-.71-1.99-3.42-2.36-6.1-2.83-1.81-.32-1.52,.08-2.22,5.23-.41,2.99,.99,4.32,1.21,7.4Z"/><path class="cls-6" d="M75.39,195.62s-.05,0-.07,0c-5.19-.17-7.23-1.17-10.6-2.82l-.26-.13c-1.02-.5-1.44-1.72-.94-2.74,.5-1.02,1.72-1.44,2.74-.94l.26,.13c3.27,1.6,4.62,2.26,8.94,2.41,1.13,.04,2.02,.99,1.98,2.12-.04,1.11-.95,1.98-2.05,1.98Z"/><path class="cls-6" d="M71.76,191.44h-.02c-1.13-.01-2.04-.94-2.03-2.07,.04-4.35-.67-6.03-2.99-9.16-.67-.91-.48-2.19,.43-2.87,.91-.67,2.19-.48,2.87,.43,2.99,4.04,3.84,6.65,3.79,11.63-.01,1.13-.93,2.03-2.05,2.03Z"/><path class="cls-6" d="M74.27,196.37c-.3,0-.61-.07-.9-.21-1.02-.5-1.44-1.72-.94-2.74,1.76-3.6,1.69-4.43,1.36-8.43l-.02-.19c-.09-1.13,.75-2.12,1.87-2.21,1.13-.09,2.12,.75,2.21,1.87l.02,.19c.35,4.2,.49,5.94-1.76,10.56-.36,.73-1.08,1.15-1.84,1.15Z"/><path class="cls-6" d="M76.37,197.07c-.47,0-.94-.16-1.32-.48-.86-.73-.97-2.02-.24-2.89l.18-.21c2.74-3.25,3.1-3.66,3.3-7.26,.06-1.13,1.03-1.99,2.16-1.93,1.13,.06,1.99,1.03,1.93,2.16-.28,4.96-1.36,6.25-4.26,9.68l-.18,.21c-.41,.48-.98,.73-1.57,.73Z"/><path class="cls-28" d="M44.93,202.9c2.32,4.23,8.31,13.59,13.09,14.62,1.53,.26,3.02-1.74,3.86-2.95,.99-1.44,1.89-2.93,2.74-4.46,2.27-4.14,4.06-8.58,5.12-13.19l.08-.37,.04-.17s.02-.13,.03-.11l7.66,.42v.63c-.27,6.56-2.18,12.98-4.99,18.88-2.05,4.28-4.55,8.62-9,10.84-9.92,4.82-19.23-4.42-24.57-11.86-1.48-2.04-2.83-4.14-4.06-6.34l-.28-.51c-3.05-5.77,7.23-11.2,10.28-5.43h0Z"/></svg>