<?xml version="1.0" encoding="UTF-8"?><svg id="leerling" xmlns="http://www.w3.org/2000/svg" xmlns:xlink="http://www.w3.org/1999/xlink" viewBox="0 0 180 160"><defs><style>.cls-1{fill:url(#Naamloos_verloop_3);}.cls-2{fill:#f3aa2e;}.cls-3{fill:#fff;}.cls-4{fill:#7facc4;}.cls-5{fill:#8ac1ce;}.cls-6{fill:#91561e;}.cls-7{fill:#331a1c;}.cls-8{fill:#d98a1a;}.cls-9{fill:#703c0b;}.cls-10{fill:#8a4a0d;}.cls-11{fill:#598eab;}.cls-12{fill:#75481c;}.cls-13{fill:#261809;}.cls-14{fill:#2592cc;}.cls-15{fill:url(#Naamloos_verloop_44);opacity:.33;}</style><linearGradient id="Naamloos_verloop_3" x1="136.54" y1="137.49" x2="136.54" y2="93.71" gradientTransform="matrix(1, 0, 0, 1, 0, 0)" gradientUnits="userSpaceOnUse"><stop offset="0" stop-color="#f3aa2e"/><stop offset="0" stop-color="#f2a92d"/><stop offset=".31" stop-color="#e49722"/><stop offset=".63" stop-color="#db8d1c"/><stop offset="1" stop-color="#d98a1a"/></linearGradient><linearGradient id="Naamloos_verloop_44" x1="139.87" y1="137.35" x2="139.87" y2="108.03" gradientTransform="matrix(1, 0, 0, 1, 0, 0)" gradientUnits="userSpaceOnUse"><stop offset="0" stop-color="#992c13"/><stop offset=".03" stop-color="#9c3113"/><stop offset=".2" stop-color="#b25115"/><stop offset=".38" stop-color="#c36a17"/><stop offset=".57" stop-color="#cf7c18"/><stop offset=".77" stop-color="#d68619"/><stop offset="1" stop-color="#d98a1a"/></linearGradient></defs><g><g><polygon class="cls-5" points="121.29 123.05 23.21 138.82 14.43 84.15 112.26 65.07 121.29 123.05"/><g><polygon class="cls-4" points="121.29 123.05 23.21 138.82 21.87 129.65 119.58 115.49 121.29 123.05"/><rect class="cls-3" x="39.41" y="127.18" width=".88" height="8.89" transform="translate(-20.39 8) rotate(-9.13)"/><polygon class="cls-3" points="33.86 135.89 32.29 136.27 31.22 129.64 33.19 129.32 33.86 135.89"/><polygon class="cls-3" points="30.83 136.5 28.87 136.82 27.8 130.19 29.42 130.06 30.83 136.5"/><polygon class="cls-11" points="67.82 131.65 40.98 135.96 39.57 127.14 66.22 123.55 67.82 131.65"/></g></g><g><path class="cls-3" d="M74.08,98.7l-11.52-4.39c-.52-.2-1.06,.24-.98,.79l1.96,12.17c.09,.55,.74,.8,1.18,.45l9.56-7.78c.43-.35,.32-1.04-.2-1.24Z"/><path class="cls-3" d="M71.47,115c-.56,.16-1.14,.28-1.72,.38-3.99,.64-8-.31-11.28-2.68s-5.44-5.87-6.08-9.87c-.64-3.99,.31-8,2.68-11.28,2.37-3.28,5.87-5.44,9.87-6.08,8.24-1.33,16.03,4.3,17.36,12.55h0c.64,3.99-.31,8-2.68,11.28-2.02,2.8-4.87,4.78-8.15,5.7Zm-7.85-27.71c-2.95,.83-5.52,2.62-7.34,5.14-2.14,2.96-2.99,6.57-2.42,10.17,.58,3.6,2.53,6.76,5.48,8.9,2.96,2.14,6.57,2.99,10.17,2.42,3.6-.58,6.76-2.53,8.9-5.48,2.14-2.96,2.99-6.57,2.42-10.17h0c-1.2-7.43-8.21-12.51-15.65-11.31-.53,.08-1.05,.2-1.55,.34Z"/></g></g><g><path class="cls-6" d="M150.48,137.54c-.3,0-.6-.13-.8-.39-1.27-1.62-1.42-2.65-.68-4.81,.18-.54,.76-.83,1.3-.64,.53,.18,.82,.77,.63,1.31-.53,1.57-.44,1.85,.35,2.87,.35,.45,.28,1.09-.17,1.45-.19,.15-.41,.22-.63,.22Z"/><path class="cls-6" d="M147.88,138.65c-.46,0-.89-.3-1.03-.77-.69-2.32-.36-4.36,.95-5.9,.39-.45,1.06-.51,1.51-.12,.45,.39,.5,1.08,.11,1.53-.83,.97-1,2.24-.52,3.86,.17,.57-.15,1.18-.72,1.35-.1,.03-.21,.05-.31,.05Z"/><path class="cls-6" d="M145.73,135.92c-.56,0-1.02-.46-1.02-1.03,0-2.06,.51-2.97,2.41-4.21,.47-.31,1.1-.17,1.41,.31,.31,.48,.17,1.12-.3,1.42-1.38,.9-1.48,1.18-1.48,2.47,0,.57-.45,1.03-1.02,1.03h0Z"/><path class="cls-6" d="M149,127.75c-.16,.22-2.72,1.66-2.08,3.4s3.29,3.32,3.63,2.53c.49-1.15,1.9-3.21,1.81-3.26-.2-.11-3.36-2.67-3.36-2.67Z"/></g><path class="cls-8" d="M150.33,98.21c5.44,6.17,9.86,12.89,7.54,21.48-1.13,4.25-3.54,8.1-5.48,11.82l-4.71-2.89c.39-.54,.77-1.1,1.14-1.66,3.7-5.65,6.39-11.81,1.42-17.65-1.52-1.8-3.49-3.37-5.52-4.6l5.59-6.49h0Z"/><polygon class="cls-14" points="130.28 159.74 122.9 159.74 122.9 137.69 130.73 137.01 130.28 159.74"/><polygon class="cls-14" points="145.76 159.74 138.38 159.74 138.38 137.69 146.2 137.01 145.76 159.74"/><path class="cls-14" d="M146.09,138.9c0,4.98-23.35,4.98-23.35,0v-1.41l23.46-.54-.11,1.96Z"/><circle class="cls-2" cx="45.36" cy="59.71" r="22.96"/><circle class="cls-11" cx="72.34" cy="25.67" r="22.96"/><path class="cls-3" d="M47.65,63.53c-.1,.23-.18,.53-.26,.91-.13,.66-.74,1.12-1.41,1.05l-2.19-.21c-.76-.07-1.3-.78-1.17-1.54,.22-1.25,.47-2.15,.75-2.7,.38-.74,1.26-1.54,2.64-2.42l1.4-.89c.46-.28,.83-.6,1.13-.95,.54-.61,.84-1.3,.92-2.09,.09-.9-.1-1.75-.56-2.54-.46-.79-1.39-1.25-2.79-1.39s-2.4,.23-3.06,1.09c-.41,.54-.72,1.1-.91,1.69-.2,.62-.79,1.02-1.44,.96l-2.49-.24c-.79-.08-1.35-.84-1.15-1.61,.64-2.57,1.95-4.36,3.94-5.38,1.49-.77,3.25-1.06,5.29-.86,2.68,.25,4.85,1.11,6.5,2.56,1.65,1.45,2.36,3.43,2.12,5.95-.15,1.54-.66,2.81-1.53,3.79-.51,.6-1.46,1.33-2.83,2.21l-1.36,.86c-.74,.47-1.26,1.05-1.55,1.74Zm-3.19,9.47l-.48-.05c-1.33-.13-2.31-1.31-2.18-2.64l.03-.32c.13-1.33,1.31-2.31,2.64-2.18l.48,.05c1.33,.13,2.31,1.31,2.18,2.64l-.03,.32c-.13,1.33-1.31,2.31-2.64,2.18Z"/><path class="cls-12" d="M121.31,90.96c1.73-6.19,1.43-6.4,2.52-6.4,.88,0,3.68,.11,3.68,1.33,0,.73-.43,6.79-2.25,6.79-1.15,0-3.18-1.39-3.94-1.72Z"/><path class="cls-8" d="M112.41,112.94l8.76-23.66,5.51,2.16-5.12,23.71c-1.9,5.61-11.05,3.4-9.15-2.21h0Z"/><path class="cls-1" d="M146.2,136.94l-23.46,.54v-41.83c11.5-2.98,21.56-2.86,27.6,2.59l-4.13,38.69Z"/><ellipse class="cls-13" cx="160.33" cy="70.85" rx="8.7" ry="7.8"/><circle class="cls-13" cx="146.54" cy="62.1" r="19.21"/><path class="cls-10" d="M153.76,81.77c1.49,1.03,7.81,3.94,8.66-3.87,.24-2.2-2.05-3.84-5.08-4.31h0c-2.33,.26-3.19,2.3-3.19,4.4,0,1.07-.76,2.92-.39,3.78Z"/><ellipse class="cls-13" cx="122.59" cy="55.44" rx="5.99" ry="6.07" transform="translate(48.13 167.51) rotate(-80.74)"/><ellipse class="cls-13" cx="123.44" cy="62" rx="5.99" ry="6.07" transform="translate(42.37 173.85) rotate(-80.74)"/><ellipse class="cls-13" cx="130.72" cy="43.18" rx="5.99" ry="6.07" transform="translate(67.06 165.24) rotate(-80.74)"/><path class="cls-6" d="M141.63,86.82c-1.05-.26-1.98-.35-2.9-.35-1.2,0-2.39,.14-3.83,.23l-1.66,8.96c.2,2.48,6.4,2.6,8.2,.54l.2-9.38Z"/><path class="cls-9" d="M141.53,91.85l.09-4.55-6.59-.61s-.09,0-.13,0l-.44,2.62c1.8,.58,5.16,1.82,7.07,2.53Z"/><path class="cls-12" d="M125.96,87.64c-.41,0-.81-.16-1.12-.47-2.61-2.65-3-6.24-1.05-9.61l.02-.03c.42-.76,1.37-1.04,2.13-.62,.76,.42,1.04,1.38,.62,2.14-.01,.02-.03,.05-.05,.09-.71,1.23-1.59,3.63,.57,5.83,.61,.62,.6,1.61-.02,2.22-.31,.3-.7,.45-1.1,.45Z"/><path class="cls-6" d="M157.44,76.47c0-.08,.46-5.45,.46-5.45,0-13.57-3.56-18.24-19.55-18.24-9.56,0-16.92-1.1-16.92,15.87,0,12.51,3.01,17.39,13.25,19.02,9.84,1.58,13.74,.27,15.81-1.15,7.33-5.04,6.95-10.01,6.95-10.06Z"/><path class="cls-10" d="M146.15,53.31c-.87-.14-1.8-.26-2.8-.34,1.14,5.12,.23,9.46,3.17,11.93,.52,.44,2.09,2.35,2.26,2.97,3.9,14.55-6.58,19.72-13.06,19.72-.74,0-1.47-.06-2.2-.2l.32,.14c.27,.05,.55,.1,.84,.14,9.84,1.58,13.74,.27,15.81-1.15,7.33-5.04,6.95-10.01,6.95-10.06,0-.08,.46-5.45,.46-5.45,0-2.29-.1-4.33-.35-6.13-3.33-4.87-7.68-9.6-11.39-11.58Z"/><circle class="cls-13" cx="156.55" cy="69.8" r="5.02"/><ellipse class="cls-13" cx="129.8" cy="50.72" rx="7.07" ry="7.59" transform="translate(-7.97 71.69) rotate(-30)"/><ellipse class="cls-13" cx="138.98" cy="46.06" rx="7.07" ry="7.59" transform="translate(-4.41 75.66) rotate(-30)"/><ellipse class="cls-13" cx="153.63" cy="56.52" rx="10.05" ry="11.03" transform="translate(25.5 158.4) rotate(-58.69)"/><ellipse class="cls-13" cx="153.34" cy="59.37" rx="7.62" ry="6.34"/><ellipse class="cls-13" cx="161.51" cy="59.18" rx="7.62" ry="6.34"/><ellipse class="cls-13" cx="128.05" cy="67.64" rx=".85" ry="1.28"/><ellipse class="cls-13" cx="140.29" cy="69.11" rx=".85" ry="1.28"/><path class="cls-13" d="M123.22,65.52c.9-2.09,3.05-3.68,5.11-4.55,.74-.3,1.53-.53,2.35-.64,.45-.06,.86,.25,.92,.7,.07,.5-.34,.95-.84,.93-1.35-.05-2.78,.28-4.09,.88-1.31,.62-2.59,1.47-3.38,2.72-.01,.02-.04,.03-.06,.02-.02-.01-.02-.03-.02-.05h0Z"/><path class="cls-13" d="M145.42,66.95c-.73-1.29-1.97-2.2-3.24-2.88-1.28-.66-2.69-1.06-4.04-1.08-.45,0-.81-.38-.81-.83,0-.5,.48-.89,.97-.79,1.6,.3,3.06,1.02,4.34,1.98,1.21,.94,2.33,2.11,2.86,3.57,0,.02,0,.04-.03,.05-.02,0-.04,0-.05-.02h0Z"/><ellipse class="cls-3" cx="136.27" cy="81.61" rx="1.72" ry="3.05" transform="translate(-18.87 47.55) rotate(-18.54)"/><path class="cls-10" d="M133.44,61.54s-1.66,11.26-1.83,11.31-2.23,1.67-1.66,2.66,4.1,.84,4.3,.39c.16-.34,.46-9.05,.59-12.91,.03-.92-.66-1.63-1.4-1.46h0Z"/><path class="cls-7" d="M158.6,80.7c-.19-.25-.31-.55-.32-.83-.01-.28,.12-.53,.33-.71,.1-.09,.21-.16,.35-.24,.13-.08,.26-.16,.38-.25,.24-.19,.48-.4,.63-.7,.08-.14,.14-.31,.15-.49,.02-.18-.02-.38-.11-.55-.18-.34-.52-.56-.85-.65-.67-.2-1.39,0-1.8,.48h0c-.24,.34-.48,.68-.71,1.04,.3-.29,.59-.59,.87-.9h0c.21-.17,.47-.3,.74-.35,.27-.05,.56-.03,.82,.06,.26,.09,.5,.25,.61,.47,.11,.21,.09,.47-.04,.7-.12,.23-.31,.44-.52,.63-.11,.09-.22,.18-.34,.27-.11,.08-.26,.18-.36,.29-.22,.23-.36,.57-.3,.9,.06,.33,.24,.61,.47,.83Z"/><path class="cls-12" d="M124.43,87.57c-.2,0-.4-.04-.59-.12-2.3-.94-3.81-2.76-4.38-5.26-.28-1.23-.33-2.58-.13-4v-.05c.1-.86,.86-1.48,1.72-1.4,.86,.08,1.5,.85,1.42,1.71,0,.03,0,.08-.02,.16-.23,1.72-.2,4.79,2.59,5.93,.8,.33,1.19,1.25,.86,2.05-.25,.61-.84,.98-1.46,.98Z"/><path class="cls-15" d="M149.17,108.03s-2.97,12.54-8.07,21.84c-2.26,4.13-10.53,7.48-10.53,7.48l15.59-.45,3-28.87Z"/><g><g><path class="cls-3" d="M76.18,29.97c-.16,0-.32-.06-.45-.18-.26-.25-.27-.66-.02-.92,.93-.98,1.4-2.31,1.29-3.65-.11-1.34-.78-2.58-1.85-3.4-.29-.22-.34-.63-.12-.91,.22-.29,.63-.34,.91-.12,1.36,1.04,2.22,2.62,2.35,4.33,.13,1.71-.47,3.4-1.65,4.64-.13,.13-.3,.2-.47,.2Z"/><path class="cls-3" d="M79.61,33.06c-.16,0-.31-.06-.44-.17-.27-.24-.28-.65-.04-.92,1.76-1.92,2.65-4.51,2.44-7.11-.2-2.59-1.49-5.01-3.52-6.64-.28-.22-.33-.63-.1-.91,.22-.28,.63-.33,.91-.1,2.32,1.85,3.78,4.6,4.01,7.55,.23,2.95-.78,5.9-2.78,8.09-.13,.14-.3,.21-.48,.21Z"/><path class="cls-3" d="M82.56,35.71c-.15,0-.3-.05-.43-.16-.27-.24-.3-.65-.06-.92,2.43-2.8,3.61-6.37,3.32-10.07-.29-3.7-2.02-7.04-4.86-9.43-.28-.23-.31-.64-.08-.92,.23-.28,.64-.31,.92-.08,3.11,2.61,5,6.27,5.32,10.32,.32,4.05-.97,7.96-3.64,11.03-.13,.15-.31,.22-.49,.22Z"/></g><g><path class="cls-3" d="M61.05,29.09l5.12-.4-.46-5.82-5.12,.4c-3.12,.25-2.66,6.06,.46,5.82Z"/><polygon class="cls-3" points="61.48 26.13 72.07 34.55 70.63 16.15 61.48 26.13"/></g></g></svg>