<?xml version="1.0" encoding="UTF-8"?><svg xmlns="http://www.w3.org/2000/svg" xmlns:xlink="http://www.w3.org/1999/xlink" viewBox="0 0 430 316"><defs><style>.cls-1{opacity:.31;}.cls-1,.cls-2{mix-blend-mode:screen;}.cls-1,.cls-2,.cls-3{fill:#fff;}.cls-2{opacity:.59;}.cls-4{fill:url(#Naamloos_verloop_5);}.cls-5{fill:#fa8078;}.cls-6{fill:#fa8b82;}.cls-7{fill:#f3aa2e;}.cls-8{fill:#fa9992;}.cls-9{fill:#fa776e;}.cls-10{fill:#e65549;}.cls-11{fill:#f0a030;}.cls-12{fill:#7facc4;}.cls-13{fill:#8ac1ce;}.cls-14{fill:#a3deff;}.cls-15{fill:#d19328;}.cls-16{fill:#87d4ff;}.cls-17{fill:#479fd1;}.cls-18{fill:#598eab;}.cls-19{fill:#5e3b09;}.cls-20{fill:#2594cf;}.cls-21{fill:url(#Naamloos_verloop_5-2);}.cls-22{fill:url(#Naamloos_verloop_36);opacity:.33;}.cls-23{clip-path:url(#clippath-1);}.cls-24{isolation:isolate;}</style><linearGradient id="Naamloos_verloop_5" x1="129.68" y1="198.36" x2="129.68" y2="107.92" gradientTransform="translate(-2.72 71.44) rotate(-1.4)" gradientUnits="userSpaceOnUse"><stop offset="0" stop-color="#136a99"/><stop offset=".21" stop-color="#1a7baf"/><stop offset=".45" stop-color="#2089c1"/><stop offset=".7" stop-color="#2391cb"/><stop offset="1" stop-color="#2594cf"/></linearGradient><linearGradient id="Naamloos_verloop_36" x1="121.52" y1="266.2" x2="121.52" y2="212.38" gradientTransform="matrix(1, 0, 0, 1, 0, 0)" gradientUnits="userSpaceOnUse"><stop offset="0" stop-color="#073752"/><stop offset=".56" stop-color="#186c9a"/><stop offset="1" stop-color="#2594cf"/></linearGradient><clipPath id="clippath-1"><circle class="cls-3" cx="104.92" cy="274.93" r="14.12"/></clipPath><linearGradient id="Naamloos_verloop_5-2" x1="135.25" y1="208.32" x2="135.25" y2="63.7" xlink:href="#Naamloos_verloop_5"/></defs><g class="cls-24"><g id="leerkracht"><g><g><polygon class="cls-13" points="404.04 117.31 225.89 120.33 224.21 21.03 402.78 12.08 404.04 117.31"/><g><polygon class="cls-12" points="404.04 117.31 225.89 120.33 225.84 103.7 402.93 103.45 404.04 117.31"/><rect class="cls-3" x="256.48" y="103.82" width="1.58" height="15.95" transform="translate(-1.85 4.37) rotate(-.97)"/><polygon class="cls-3" points="245.54 117.84 242.65 118.11 242.45 106.07 246.02 106.01 245.54 117.84"/><polygon class="cls-3" points="240.01 118.16 236.44 118.22 236.24 106.17 239.13 106.36 240.01 118.16"/><polygon class="cls-18" points="306.92 118.96 258.17 119.78 257.9 103.75 306.15 104.18 306.92 118.96"/></g></g><g><path class="cls-3" d="M326.18,61.92l-18.83-10.45c-.99-.55-2.2,.18-2.18,1.31l.36,21.53c.02,1.13,1.25,1.82,2.22,1.23l18.46-11.08c.97-.58,.95-2-.04-2.54Z"/><path class="cls-3" d="M317.64,90.32c-1.04,.14-2.09,.22-3.15,.23-7.25,.12-14.12-2.59-19.34-7.63s-8.16-11.82-8.28-19.07c-.12-7.25,2.59-14.12,7.63-19.34,5.04-5.22,11.82-8.16,19.07-8.28,14.98-.25,27.37,11.72,27.62,26.7h0c.12,7.25-2.59,14.12-7.63,19.34-4.3,4.45-9.87,7.25-15.92,8.05Zm-6.87-51.2c-5.45,.72-10.47,3.24-14.35,7.25-4.55,4.7-6.99,10.89-6.88,17.44,.11,6.54,2.76,12.65,7.46,17.19,4.7,4.55,10.89,6.99,17.44,6.88,6.54-.11,12.65-2.76,17.19-7.46,4.55-4.7,6.99-10.9,6.88-17.44h0c-.23-13.5-11.4-24.3-24.9-24.07-.96,.02-1.91,.09-2.84,.21Z"/></g></g><g><g><polygon class="cls-13" points="407.54 298.41 229.39 301.42 227.71 202.12 406.28 200.33 407.54 298.41"/><g><polygon class="cls-12" points="407.54 298.41 229.39 301.42 229.33 284.8 406.43 284.55 407.54 298.41"/><rect class="cls-3" x="259.97" y="284.91" width="1.58" height="15.95" transform="translate(-4.92 4.45) rotate(-.97)"/><polygon class="cls-3" points="249.03 298.93 246.15 299.21 245.95 287.16 249.51 287.1 249.03 298.93"/><polygon class="cls-3" points="243.51 299.25 239.94 299.31 239.74 287.27 242.63 287.46 243.51 299.25"/><polygon class="cls-18" points="310.41 300.05 261.67 300.88 261.4 284.84 309.64 285.27 310.41 300.05"/></g></g><g><path class="cls-3" d="M329.67,243.01l-18.83-10.45c-.99-.55-2.2,.18-2.18,1.31l.36,21.53c.02,1.13,1.25,1.82,2.22,1.23l18.46-11.08c.97-.58,.95-2-.04-2.54Z"/><path class="cls-3" d="M321.14,271.42c-1.04,.14-2.09,.22-3.15,.23-7.25,.12-14.12-2.59-19.34-7.63s-8.16-11.82-8.28-19.07c-.12-7.25,2.59-14.12,7.63-19.34,5.04-5.22,11.82-8.16,19.07-8.28,14.98-.25,27.37,11.72,27.62,26.7h0c.12,7.25-2.59,14.12-7.63,19.34-4.3,4.45-9.87,7.25-15.92,8.05Zm-6.87-51.2c-5.45,.72-10.47,3.24-14.35,7.25-4.55,4.7-6.99,10.89-6.88,17.44,.11,6.54,2.76,12.65,7.46,17.19,4.7,4.55,10.89,6.99,17.44,6.88,6.54-.11,12.65-2.76,17.19-7.46,4.55-4.7,6.99-10.9,6.88-17.44h0c-.23-13.5-11.4-24.3-24.9-24.07-.96,.02-1.91,.09-2.84,.21Z"/></g></g></g><g id="nieuw_onderdeel"><g><polygon class="cls-18" points="410.87 171.42 236.52 208.16 218.15 114.56 391.18 77.71 410.87 171.42"/><rect class="cls-12" x="254.89" y="188.39" width="27.2" height="3.89" transform="translate(-34.25 61.26) rotate(-12.24)"/><polygon class="cls-12" points="296.38 186.27 285.42 188.64 283.75 185.03 294.7 182.65 296.38 186.27"/><rect class="cls-12" x="298.73" y="180.61" width="11.21" height="3.89" transform="translate(-31.79 68.68) rotate(-12.24)"/><g><circle class="cls-14" cx="251.41" cy="127.63" r="11.66"/><path class="cls-18" d="M254.68,125.23l-5.38-1.62c-1.08-.33-2.11,.64-1.85,1.74l1.29,5.48c.26,1.1,1.61,1.51,2.44,.73l4.1-3.85c.82-.77,.5-2.15-.58-2.48Z"/></g><g><g><path class="cls-14" d="M249.64,165.29c-.5,0-.96-.35-1.07-.86l-.34-1.56c-.13-.59,.25-1.18,.84-1.3,.59-.13,1.18,.25,1.3,.84l.34,1.56c.13,.59-.25,1.18-.84,1.3-.08,.02-.16,.03-.23,.03Z"/><path class="cls-14" d="M253.88,165.45c-.5,0-.96-.35-1.07-.86l-.76-3.53c-.13-.59,.25-1.18,.84-1.3,.59-.13,1.18,.25,1.3,.84l.76,3.53c.13,.59-.25,1.18-.84,1.3-.08,.02-.16,.03-.23,.03Z"/><path class="cls-14" d="M258,165.1c-.5,0-.96-.35-1.07-.86l-1.03-4.77c-.13-.59,.25-1.18,.84-1.3,.59-.13,1.18,.25,1.3,.84l1.03,4.77c.13,.59-.25,1.18-.84,1.3-.08,.02-.16,.03-.23,.03Z"/><path class="cls-14" d="M263.08,169.14c-.5,0-.96-.35-1.07-.86l-3-13.82c-.13-.59,.25-1.18,.84-1.3,.59-.13,1.18,.25,1.3,.84l3,13.82c.13,.59-.25,1.18-.84,1.3-.08,.02-.16,.03-.23,.03Z"/><path class="cls-14" d="M267.84,171.76c-.5,0-.96-.35-1.07-.86l-4.3-19.8c-.13-.59,.25-1.18,.84-1.3,.59-.13,1.18,.25,1.3,.84l4.3,19.8c.13,.59-.25,1.18-.84,1.3-.08,.02-.16,.03-.23,.03Z"/><path class="cls-14" d="M272.29,172.91c-.5,0-.96-.35-1.07-.86l-5.39-24.84c-.13-.59,.25-1.18,.84-1.3,.59-.13,1.18,.25,1.3,.84l5.39,24.84c.13,.59-.25,1.18-.84,1.3-.08,.02-.16,.03-.23,.03Z"/><path class="cls-14" d="M275.94,170.35c-.5,0-.96-.35-1.07-.86l-4.66-21.46c-.13-.59,.25-1.18,.84-1.3,.59-.13,1.18,.25,1.3,.84l4.66,21.46c.13,.59-.25,1.18-.84,1.3-.08,.02-.16,.03-.23,.03Z"/><path class="cls-14" d="M279.64,168.08c-.5,0-.96-.35-1.07-.86l-4.05-18.65c-.13-.59,.25-1.18,.84-1.3,.59-.13,1.18,.25,1.3,.84l4.05,18.65c.13,.59-.25,1.18-.84,1.3-.08,.02-.16,.03-.23,.03Z"/><path class="cls-14" d="M283.08,164.6c-.5,0-.96-.35-1.07-.86l-2.92-13.44c-.13-.59,.25-1.18,.84-1.3,.59-.13,1.18,.25,1.3,.84l2.92,13.44c.13,.59-.25,1.18-.84,1.3-.08,.02-.16,.03-.23,.03Z"/><path class="cls-14" d="M286.81,162.4c-.5,0-.96-.35-1.07-.86l-2.34-10.78c-.13-.59,.25-1.18,.84-1.3,.59-.13,1.18,.25,1.3,.84l2.34,10.78c.13,.59-.25,1.18-.84,1.3-.08,.02-.16,.03-.23,.03Z"/><path class="cls-14" d="M291.08,162.76c-.5,0-.96-.35-1.07-.86l-2.87-13.24c-.13-.59,.25-1.18,.84-1.3,.59-.13,1.18,.25,1.3,.84l2.87,13.24c.13,.59-.25,1.18-.84,1.3-.08,.02-.16,.03-.23,.03Z"/><path class="cls-14" d="M295.9,165.61c-.5,0-.96-.35-1.07-.86l-4.49-20.68c-.13-.59,.25-1.18,.84-1.3,.59-.13,1.18,.25,1.3,.84l4.49,20.68c.13,.59-.25,1.18-.84,1.3-.08,.02-.16,.03-.23,.03Z"/><path class="cls-14" d="M299.27,161.8c-.5,0-.96-.35-1.07-.86l-3.21-14.79c-.13-.59,.25-1.18,.84-1.3,.59-.13,1.18,.25,1.3,.84l3.21,14.79c.13,.59-.25,1.18-.84,1.3-.08,.02-.16,.03-.23,.03Z"/><path class="cls-14" d="M302.35,156.62c-.5,0-.96-.35-1.07-.86l-1.34-6.19c-.13-.59,.25-1.18,.84-1.3,.59-.13,1.18,.25,1.3,.84l1.34,6.19c.13,.59-.25,1.18-.84,1.3-.08,.02-.16,.03-.23,.03Z"/><path class="cls-14" d="M306.45,156.19c-.5,0-.96-.35-1.07-.86l-1.53-7.06c-.13-.59,.25-1.18,.84-1.3,.59-.13,1.18,.25,1.3,.84l1.53,7.06c.13,.59-.25,1.18-.84,1.3-.08,.02-.16,.03-.23,.03Z"/><path class="cls-14" d="M310.87,157.18c-.5,0-.96-.35-1.07-.86l-2.34-10.78c-.13-.59,.25-1.18,.84-1.3,.59-.13,1.18,.25,1.3,.84l2.34,10.78c.13,.59-.25,1.18-.84,1.3-.08,.02-.16,.03-.23,.03Z"/><path class="cls-14" d="M314.72,155.61c-.5,0-.96-.35-1.07-.86l-2.03-9.38c-.13-.59,.25-1.18,.84-1.3,.59-.13,1.18,.25,1.3,.84l2.03,9.38c.13,.59-.25,1.18-.84,1.3-.08,.02-.16,.03-.23,.03Z"/><path class="cls-14" d="M318.13,151.94c-.5,0-.96-.35-1.07-.86l-.82-3.77c-.13-.59,.25-1.18,.84-1.3,.59-.13,1.18,.25,1.3,.84l.82,3.77c.13,.59-.25,1.18-.84,1.3-.08,.02-.16,.03-.23,.03Z"/></g><g><path class="cls-14" d="M322.54,151.18c-.5,0-.96-.35-1.07-.86l-.91-4.16c-.13-.59,.25-1.18,.84-1.3,.59-.13,1.18,.25,1.3,.84l.91,4.16c.13,.59-.25,1.18-.84,1.3-.08,.02-.16,.03-.23,.03Z"/><path class="cls-14" d="M326.93,152.05c-.5,0-.96-.35-1.07-.86l-1.66-7.63c-.13-.59,.25-1.18,.84-1.3,.59-.13,1.18,.25,1.3,.84l1.66,7.63c.13,.59-.25,1.18-.84,1.3-.08,.02-.16,.03-.23,.03Z"/><path class="cls-14" d="M330.77,150.39c-.5,0-.96-.35-1.07-.86l-1.33-6.06c-.13-.59,.24-1.18,.84-1.31,.59-.13,1.18,.24,1.31,.84l1.33,6.06c.13,.59-.24,1.18-.84,1.31-.08,.02-.16,.03-.24,.03Z"/><path class="cls-14" d="M335.08,150.92c-.5,0-.96-.35-1.07-.86l-1.94-8.86c-.13-.59,.25-1.18,.84-1.31,.59-.13,1.18,.25,1.31,.84l1.94,8.86c.13,.59-.25,1.18-.84,1.31-.08,.02-.16,.03-.24,.03Z"/><path class="cls-14" d="M338.97,149.49c-.5,0-.96-.35-1.07-.86l-1.68-7.73c-.13-.59,.25-1.18,.84-1.3,.59-.13,1.18,.25,1.3,.84l1.68,7.73c.13,.59-.25,1.18-.84,1.3-.08,.02-.16,.03-.23,.03Z"/><path class="cls-14" d="M344.84,157.17c-.5,0-.96-.35-1.07-.86l-5.41-24.84c-.13-.59,.25-1.18,.84-1.3,.59-.13,1.18,.25,1.3,.84l5.41,24.84c.13,.59-.25,1.18-.84,1.3-.08,.02-.16,.03-.23,.03Z"/><path class="cls-14" d="M349.71,160.29c-.5,0-.96-.35-1.07-.86l-7.14-32.81c-.13-.59,.25-1.18,.84-1.3,.59-.13,1.18,.25,1.3,.84l7.14,32.81c.13,.59-.25,1.18-.84,1.3-.08,.02-.16,.03-.23,.03Z"/><path class="cls-14" d="M352.58,154.13c-.5,0-.96-.35-1.07-.86l-4.84-22.24c-.13-.59,.25-1.18,.84-1.3,.59-.13,1.18,.25,1.3,.84l4.84,22.24c.13,.59-.25,1.18-.84,1.3-.08,.02-.16,.03-.23,.03Z"/><path class="cls-14" d="M355.63,148.86c-.5,0-.96-.35-1.07-.86l-2.93-13.43c-.13-.59,.25-1.18,.84-1.3,.59-.13,1.18,.25,1.3,.84l2.93,13.43c.13,.59-.25,1.18-.84,1.3-.08,.02-.16,.03-.23,.03Z"/><path class="cls-14" d="M359.35,146.66c-.5,0-.96-.35-1.07-.86l-2.35-10.78c-.13-.59,.25-1.18,.84-1.3,.59-.13,1.18,.25,1.3,.84l2.35,10.78c.13,.59-.25,1.18-.84,1.3-.08,.02-.16,.03-.23,.03Z"/><path class="cls-14" d="M363.63,147.02c-.5,0-.96-.35-1.07-.86l-2.88-13.24c-.13-.59,.25-1.18,.84-1.3,.59-.13,1.18,.25,1.3,.84l2.88,13.24c.13,.59-.25,1.18-.84,1.3-.08,.02-.16,.03-.23,.03Z"/><path class="cls-14" d="M368.45,149.87c-.5,0-.96-.35-1.07-.86l-4.51-20.68c-.13-.59,.25-1.18,.84-1.3,.59-.13,1.18,.25,1.3,.84l4.51,20.68c.13,.59-.25,1.18-.84,1.3-.08,.02-.16,.03-.23,.03Z"/><path class="cls-14" d="M371.82,146.06c-.5,0-.96-.35-1.07-.86l-3.22-14.79c-.13-.59,.25-1.18,.84-1.3,.59-.13,1.18,.25,1.3,.84l3.22,14.79c.13,.59-.25,1.18-.84,1.3-.08,.02-.16,.03-.23,.03Z"/><path class="cls-14" d="M374.89,140.89c-.5,0-.96-.35-1.07-.86l-1.35-6.18c-.13-.59,.25-1.18,.84-1.3,.59-.13,1.18,.25,1.3,.84l1.35,6.18c.13,.59-.25,1.18-.84,1.3-.08,.02-.16,.03-.23,.03Z"/><path class="cls-14" d="M378.99,140.45c-.5,0-.96-.35-1.07-.86l-1.54-7.05c-.13-.59,.25-1.18,.84-1.3,.59-.13,1.18,.25,1.3,.84l1.54,7.05c.13,.59-.25,1.18-.84,1.3-.08,.02-.16,.03-.23,.03Z"/></g></g></g><polygon class="cls-17" points="146.99 270.24 117.85 271.51 117.85 263.77 146.3 263.77 146.99 270.24"/><path class="cls-8" d="M221.26,157.85c-2.06-4.19-3.33-10.02,.3-13.84,1.24-1.28,2.84-2.04,4.5-2.42,.21-.05,.43-.09,.64-.1,.63-.06,1.33,.08,1.88,.26,2.24,.78,4.27,1.91,6.29,2.96,1.67,.88,2.3,2.95,1.42,4.62-.87,1.64-2.88,2.28-4.53,1.46-1.6-.76-3.93-1.84-5.16-2.2,.35,.07,.82,.03,1.16-.05-.09,.03-.22,.07-.31,.1-.33,.14-.58,.23-.68,.53-.13,.46-.12,.89,0,1.59,.18,1.07,.65,2.31,1.17,3.32l.05,.09,.02,.04s.02,.03,0,0c2.24,4.57-4.15,8.03-6.75,3.65h0Z"/><path class="cls-8" d="M163.63,180.39c21.42,.66,41.02-9.51,55.23-25.16l.75-.8,.42-.44,.12-.12,.14-.14c.08-.08,.23-.22,.37-.35l5.36,6.09c-3.81,4.28-7.97,8.5-12.5,12.12-12.33,10.04-27.68,16.58-43.62,17.73-1.92,.14-3.84,.22-5.77,.23-.49,0-.99-.03-1.49-.09l.99-9.07h0Z"/><polygon class="cls-20" points="167.92 196.87 149.06 196.87 138.82 176.38 163.47 175.64 167.92 196.87"/><path class="cls-8" d="M76.61,255.55c-.09-.56-.15-1.13-.19-1.72-.78-14.41,2.23-27.58,8.95-39.14,5.43-9.34,11.82-15.09,14.89-17.86,.47-.43,1.06-.96,1.22-1.13-.03,.03-.05,.05-.06,.08l6.37,5.02c-.46,.58-1.07,1.13-2.09,2.06-5.64,5.08-22.79,20.53-21.16,50.53,.02,.29,.05,.57,.09,.84l-8.01,1.32Z"/><polygon class="cls-20" points="107.95 215.84 119.27 200.75 110.79 179.93 91.79 198.97 107.95 215.84"/><rect class="cls-16" x="111.55" y="261.32" width="13.17" height="59.14"/><rect class="cls-16" x="137.52" y="261.32" width="14.18" height="59.14"/><polygon class="cls-17" points="111.55 272.05 124.72 271.34 124.72 265.16 111.55 263.04 111.55 272.05"/><polygon class="cls-17" points="137.52 270.64 151.7 269.86 151.7 262.75 137.52 262.75 137.52 270.64"/><path class="cls-4" d="M158.27,265.93l-53.02,.86c3.1-19.95,3.79-51.08,4.08-84.02,.02-1.95,1.34-3.64,3.22-4.15,12.77-3.51,25.96-3.27,39.59,.8,1.83,32.57,3.8,62.74,6.14,86.52Z"/><path class="cls-7" d="M169.26,68.42c9.83-9.12,12.86-21.85,16.14-34.38,7.41,5.78,11.96,12.97,13.64,22.15-8.8,4.25-19.2,10.4-26.89,16.46"/><path class="cls-18" d="M171.58,64.23c2.1,2.51,4.18,5.04,6.29,7.55-.83,1.08-1.93,1.89-2.62,3.07-2.1-2.49-5.14-4.98-7.85-6.78,.33-.69,1.39-1.72,1.51-2.41h0c.88-.51,1.78-.96,2.68-1.44Z"/><path class="cls-7" d="M87.66,134.79c-9.78-7.36-14.1-18.05-14.1-29,0-31.77,30.46-50.75,62.69-50.75s45.9,19.16,45.9,32.52c0,28.66-58.03,50.56-71.32,50.56-5.69,0-14.56,.26-23.17-3.34Z"/><path class="cls-11" d="M84.55,80.29c-.66,2.82-1.68,4.95-3.35,7.29-21.54-22.79-33.86-13.96-33.86-20.96,0-3.92,4.73-16.33,12.65-22.61,1.24,2.3,6.47,23.52,24.56,36.28"/><path class="cls-8" d="M139.25,182.02v-20.67c-4.13-.54-8-.97-12.13-.97-.7,0-1.4,.01-2.12,.04l.26,20.05c2.05,2.6,5.45,5.13,8.64,5.13,2,0,3.91-.99,5.35-3.57Z"/><path class="cls-9" d="M125.1,167.98c2.02,.53,4.03,.77,6.06,.77s5.72-.32,8.09-1.24v-4.97c-1.13,.03-2.37,.25-3.38,.25h-.03c-3.59-.01-7.53-.75-10.84-2.28l.1,7.46Z"/><path class="cls-8" d="M96.89,94.41c-.57,19.6-4.77,25.46-4.77,25.46,0,25.13,11.99,43.89,37,43.89,.03,0,17.23,2.21,30.32-1.73,18.27-5.49,22.75-36.63,22.75-49.8,0-6.57-.94-14.65-1.82-21.1-3.47-.91-11.8-11.68-42.72-11.68-10.8,0-21.89,1.42-28.76,4.61-5.39,2.5-8.29,5.6-11.99,10.35Z"/><path class="cls-6" d="M124.09,81.41c-3.93,0-7.91,.3-11.84,.9-1.21,.4-2.33,.84-3.36,1.32-5.39,2.5-8.29,5.6-11.99,10.35-.57,19.6-4.77,25.46-4.77,25.46,0,25.13,10.61,44.11,35.62,44.11,0,0,3.93,.58,6.35,.65-17.19-9.36-32.28-22.27-32.28-44.15,0-16.43,24.69-19.29,41.18-19.29,8.34,0,29.14,1.75,36.72,1.75,3.06,0-12.55-6.78-11.66-8.16-4.97-3.84-12.27-4.7-17.91-7.48-7.55-3.73-16.7-5.44-26.06-5.44Z"/><path class="cls-7" d="M97.48,81.14c-1.04,2.73-1.54,5.81-1.54,8.93,0,5.82,3.75,11.37,7.09,15.63,12.12-5.9,22.96-7.38,35.95-7.38,10.12,0,49.88,5.01,52.11,5.75,1.26-2.89-2.12-16.74-3.89-19.34-13.58-20.05-40.53-15.85-51.65-15.85-13.84,0-27.7,3.63-38.07,12.27Z"/><path class="cls-18" d="M73.77,82.23c2.13-2.49,4.29-4.95,6.42-7.44,1.2,.64,2.18,1.59,3.46,2.09-2.11,2.48-4.08,5.88-5.4,8.85-.74-.21-1.92-1.09-2.62-1.09h0c-.64-.79-1.24-1.6-1.85-2.41Z"/><path class="cls-5" d="M145.74,107.35c1.05,0,1.88,.9,1.82,1.95-.15,2.61-.33,5.52-.34,8.4-.01,14.38,2.79,15.08,4.43,16.99s.38,5.01-2.18,5.25c-.58,.05-1.18,.09-1.78,.09-5.44,0-5.92-1.05-5.92-16.91,0-14.61,.62-15.78,3.94-15.78h.02Z"/><path class="cls-15" d="M112.44,111.26c.59-.61,1.4-.97,2.16-1.31,3.7-1.53,7.59-2.49,11.47-3.45,1.53-.35,3.08-.74,4.63-.97,.1-.01,.23-.02,.33-.02l-.16,2.74s.03,0,.05,0c0,0-.01,0-.02,0-.22,0-.72,.04-.94,.06-2.73,.25-5.45,.61-8.16,1.04-2.31,.38-4.63,.79-6.88,1.46-.62,.19-1.25,.41-1.81,.75l-.19,.15-.48-.45h0Z"/><path class="cls-15" d="M175.94,110.83l-.19-.15-.23-.13c-1.2-.6-2.53-.89-3.84-1.21-4.39-.94-8.87-1.56-13.35-1.96h-.26l-.11-.02s-.03,0-.02,0c.02,0,.03,0,.05,0l-.16-2.74c.16,0,.36,.02,.51,.04,3.06,.55,6.08,1.33,9.08,2.14,2.31,.65,4.62,1.32,6.84,2.26,.66,.29,1.33,.61,1.91,1.06l.25,.25-.48,.45h0Z"/><path class="cls-3" d="M145.75,148.71c-2.64,4.42-5.76,6.85-8.71,7.64-4.54,1.21-8.7-1.51-10.15-6.96-.42-1.59-.62-3.42-.52-5.45l19.37,4.77Z"/><path class="cls-11" d="M114.93,59.75c2.31-1.48,4.82-2.57,7.4-3.5-26.56,4.62-48.77,22.42-48.77,49.55,0,8.11,2.38,16.08,7.58,22.66,3.28-1.77,6.79-4.98,9.73-6.13-3.26-3.96-4.26-12.5-4.26-16.91,0-18.41,13.33-36.1,28.32-45.66Z"/><path class="cls-6" d="M99.2,139.33c-2.17-5.12-3.25-11.21-3.59-16.7-2.86-1.92-5.61-3.38-9.17-3.38-5.8,0-8.41,4.71-8.41,9.97,0,6.63,4.16,14.14,11.33,14.14,1.32,0,2.73-.25,4.25-.81,1.96-.72,4.11-1.68,5.59-3.22Z"/><path class="cls-19" d="M117.96,119.76c2.09-3.28,6.18-3.13,9.16-1.19-.84-.11-1.64-.28-2.44-.39-2.61-.42-4.55,.07-6.72,1.57h0Z"/><path class="cls-19" d="M167.9,120.23c-2.17-1.51-4.11-2-6.72-1.57-.8,.11-1.6,.27-2.44,.39,2.98-1.94,7.07-2.09,9.16,1.19h0Z"/><path class="cls-10" d="M90.83,134.77c-.68-.11-1.34-.37-1.8-.79-.46-.43-.64-1.02-.59-1.62,.02-.31,.09-.58,.18-.91,.08-.33,.16-.65,.2-.99,.08-.67,.11-1.37-.1-2.07-.1-.35-.27-.7-.52-1-.25-.3-.61-.56-1.02-.68-.82-.25-1.68-.06-2.34,.3-1.36,.73-2.16,2.18-2.05,3.56v.02c.15,.9,.3,1.81,.5,2.71,.01-.92-.01-1.84-.04-2.75v.02c.05-.61,.26-1.2,.6-1.71,.35-.5,.82-.93,1.37-1.19,.54-.27,1.17-.38,1.68-.21,.5,.16,.87,.6,1.04,1.15,.17,.55,.21,1.17,.16,1.79-.03,.31-.06,.63-.11,.94-.05,.31-.12,.67-.11,1.02,0,.7,.32,1.44,.93,1.86,.59,.42,1.33,.57,2.02,.55Z"/><path class="cls-8" d="M88.62,261.19l-4.54-1.64s0,.02-.02,.05c.09-.29,.76-2.92-3.2-5.34-1.14-.7-1.49-2.18-.8-3.32,.7-1.14,2.18-1.49,3.32-.8,3.78,2.31,5.04,5.09,5.43,7.01,.43,2.15-.08,3.74-.19,4.03Z"/><path class="cls-22" d="M109.67,212.38s-.13,16.3,10.17,35.1c4.57,8.35,17.23,18.72,17.23,18.72l-31.09-.06,3.69-53.76Z"/><g><path class="cls-18" d="M90.21,268.46c-.63,0-1.27-.18-1.84-.56l-21.78-14.69c-1.51-1.02-1.9-3.06-.89-4.57s3.06-1.9,4.57-.89l21.78,14.69c1.51,1.02,1.9,3.06,.89,4.57-.64,.94-1.67,1.45-2.73,1.45Z"/><path class="cls-7" d="M104.69,292.95c-1.08,0-2.16-.1-3.25-.29-4.74-.86-8.87-3.51-11.61-7.47h0c-5.67-8.17-3.63-19.44,4.54-25.11,8.17-5.67,19.44-3.63,25.11,4.54,5.67,8.17,3.63,19.44-4.54,25.11-3.05,2.12-6.6,3.22-10.24,3.22Zm-11.26-10.26c2.08,3,5.2,5,8.79,5.65,3.59,.65,7.22-.14,10.21-2.22,6.19-4.29,7.73-12.82,3.44-19-4.29-6.19-12.82-7.73-19-3.44-6.19,4.29-7.73,12.82-3.44,19h0Z"/><g><circle class="cls-3" cx="104.92" cy="274.93" r="14.12"/><g class="cls-23"><polygon class="cls-17" points="161.92 282.25 115.33 284.29 115.33 271.91 160.81 271.91 161.92 282.25"/><rect class="cls-16" x="105.25" y="267.99" width="21.05" height="94.56"/><rect class="cls-16" x="146.78" y="267.99" width="22.67" height="94.56"/><polygon class="cls-17" points="105.25 285.15 126.31 284.01 126.31 274.13 105.25 270.74 105.25 285.15"/><polygon class="cls-17" points="146.78 282.89 169.45 281.65 169.45 270.27 146.78 270.27 146.78 282.89"/><path class="cls-21" d="M179.96,275.35l-84.78,1.37c4.96-31.9,6.06-81.67,6.52-134.35,.03-3.12,2.14-5.81,5.14-6.64,20.41-5.61,41.51-5.22,63.3,1.28,2.93,52.08,6.08,100.32,9.81,138.34Z"/></g></g><circle class="cls-2" cx="104.92" cy="274.93" r="14.2"/><circle class="cls-2" cx="113.24" cy="270.3" r="2.33"/><circle class="cls-1" cx="114.16" cy="276.25" r="1.34"/></g><path class="cls-8" d="M70.9,261.62c-1.1,0-2.1-.76-2.35-1.89-.79-3.53-.33-6.48,1.37-8.78,2.58-3.49,6.91-3.92,7.4-3.96,1.33-.11,2.49,.89,2.59,2.22,.1,1.32-.88,2.48-2.2,2.59-.08,0-2.65,.29-3.93,2.04-.82,1.12-1,2.75-.53,4.84,.29,1.3-.53,2.59-1.83,2.88-.18,.04-.35,.06-.53,.06Z"/><path class="cls-8" d="M75.79,264.89c-.87,0-1.71-.47-2.14-1.29-1.68-3.2-2-6.17-.95-8.84,1.58-4.04,5.65-5.59,6.11-5.75,1.26-.45,2.63,.21,3.08,1.47,.44,1.25-.2,2.62-1.45,3.08-.07,.03-2.48,.96-3.26,2.99-.5,1.3-.25,2.92,.75,4.81,.62,1.18,.16,2.64-1.02,3.26-.36,.19-.74,.28-1.12,.28Z"/><path class="cls-8" d="M81.43,266.97c-.71,0-1.41-.31-1.89-.91-2.25-2.83-3.12-5.69-2.59-8.5,.8-4.26,4.51-6.55,4.93-6.79,1.15-.67,2.63-.29,3.3,.86,.67,1.15,.29,2.62-.85,3.29-.07,.04-2.26,1.41-2.64,3.55-.25,1.37,.3,2.91,1.63,4.59,.83,1.04,.65,2.56-.39,3.39-.44,.35-.97,.52-1.5,.52Z"/></g></g></svg>