<?xml version="1.0" encoding="utf-8"?>
<!-- Generator: Adobe Illustrator 18.0.0, SVG Export Plug-In . SVG Version: 6.00 Build 0)  -->
<!DOCTYPE svg PUBLIC "-//W3C//DTD SVG 1.1//EN" "http://www.w3.org/Graphics/SVG/1.1/DTD/svg11.dtd">
<svg version="1.1" id="Layer_1" xmlns="http://www.w3.org/2000/svg" xmlns:xlink="http://www.w3.org/1999/xlink" x="0px" y="0px"
	 viewBox="0 0 160 137" enable-background="new 0 0 160 137" xml:space="preserve">
<g>
	<path fill="#23A4CF" d="M30.8,38.3H6V13.4h24.8V38.3z M8,36.3h20.8V15.4H8V36.3z"/>
</g>
<g>
	<path fill="#23A4CF" d="M60.8,38.3H36V13.4h24.8V38.3z M38,36.3h20.8V15.4H38V36.3z"/>
</g>
<g>
	<path fill="#23A4CF" d="M90.8,38.3H66V13.4h24.8V38.3z M68,36.3h20.8V15.4H68V36.3z"/>
</g>
<g>
	<path fill="#23A4CF" d="M120.8,38.3H96V13.4h24.8V38.3z M98,36.3h20.8V15.4H98V36.3z"/>
</g>
<g>
	<path fill="#23A4CF" d="M150.8,38.3H126V13.4h24.8V38.3z M128,36.3h20.8V15.4H128V36.3z"/>
</g>
<g>
	<g>
		<path fill="#1BA4D0" d="M141.9,30.9h-6.9c-0.8,0-1.5-0.7-1.5-1.5v-3.5c0-0.8,0.7-1.5,1.5-1.5h6.9c0.8,0,1.5,0.7,1.5,1.5v3.5
			C143.4,30.2,142.7,30.9,141.9,30.9z M134.9,25.4c-0.3,0-0.5,0.2-0.5,0.5v3.5c0,0.3,0.2,0.5,0.5,0.5h6.9c0.3,0,0.5-0.2,0.5-0.5
			v-3.5c0-0.3-0.2-0.5-0.5-0.5H134.9z"/>
	</g>
	<g>
		<path fill="#1BA4D0" d="M140.9,25.4c-0.3,0-0.5-0.2-0.5-0.5v-2c0-1.1-0.9-2-2-2s-2,0.9-2,2v2c0,0.3-0.2,0.5-0.5,0.5
			c-0.3,0-0.5-0.2-0.5-0.5v-2c0-1.6,1.3-3,3-3s3,1.3,3,3v2C141.4,25.2,141.1,25.4,140.9,25.4z"/>
	</g>
</g>
<g>
	<g>
		<path fill="#1BA4D0" d="M111.9,30.9h-6.9c-0.8,0-1.5-0.7-1.5-1.5v-3.5c0-0.8,0.7-1.5,1.5-1.5h6.9c0.8,0,1.5,0.7,1.5,1.5v3.5
			C113.4,30.2,112.7,30.9,111.9,30.9z M104.9,25.4c-0.3,0-0.5,0.2-0.5,0.5v3.5c0,0.3,0.2,0.5,0.5,0.5h6.9c0.3,0,0.5-0.2,0.5-0.5
			v-3.5c0-0.3-0.2-0.5-0.5-0.5H104.9z"/>
	</g>
	<g>
		<path fill="#1BA4D0" d="M110.9,25.4c-0.3,0-0.5-0.2-0.5-0.5v-2c0-1.1-0.9-2-2-2c-1.1,0-2,0.9-2,2v2c0,0.3-0.2,0.5-0.5,0.5
			c-0.3,0-0.5-0.2-0.5-0.5v-2c0-1.6,1.3-3,3-3s3,1.3,3,3v2C111.4,25.2,111.1,25.4,110.9,25.4z"/>
	</g>
</g>
<g>
	<g>
		<path fill="#1BA4D0" d="M83.4,31.9h-6.6c-0.9,0-1.7-0.7-1.7-1.7v-3.9c0-0.9,0.7-1.7,1.7-1.7h6.6c0.9,0,1.7,0.7,1.7,1.7v3.9
			C85,31.2,84.3,31.9,83.4,31.9z M76.7,25.9c-0.3,0-0.6,0.2-0.6,0.6v3.9c0,0.3,0.2,0.6,0.6,0.6h6.6c0.3,0,0.6-0.2,0.6-0.6v-3.9
			c0-0.3-0.2-0.6-0.6-0.6H76.7z"/>
	</g>
	<g>
		<path fill="#1BA4D0" d="M71.8,23.5v-0.4c0-1.8,1.5-3.3,3.3-3.3c1.8,0,3.3,1.5,3.3,3.3v2.2c0,0.3-0.2,0.6-0.6,0.6s-0.6-0.2-0.6-0.6
			v-2.2c0-1.2-1-2.2-2.2-2.2c-1.2,0-2.2,1-2.2,2.2v0.4c0,0.3-0.2,0.6-0.6,0.6S71.8,23.8,71.8,23.5z"/>
	</g>
</g>
<g>
	<g>
		<path fill="#1BA4D0" d="M53.4,31.9h-6.6c-0.9,0-1.7-0.7-1.7-1.7v-3.9c0-0.9,0.7-1.7,1.7-1.7h6.6c0.9,0,1.7,0.7,1.7,1.7v3.9
			C55,31.2,54.3,31.9,53.4,31.9z M46.7,25.9c-0.3,0-0.6,0.2-0.6,0.6v3.9c0,0.3,0.2,0.6,0.6,0.6h6.6c0.3,0,0.6-0.2,0.6-0.6v-3.9
			c0-0.3-0.2-0.6-0.6-0.6H46.7z"/>
	</g>
	<g>
		<path fill="#1BA4D0" d="M41.8,23.5v-0.4c0-1.8,1.5-3.3,3.3-3.3s3.3,1.5,3.3,3.3v2.2c0,0.3-0.2,0.6-0.6,0.6c-0.3,0-0.6-0.2-0.6-0.6
			v-2.2c0-1.2-1-2.2-2.2-2.2c-1.2,0-2.2,1-2.2,2.2v0.4c0,0.3-0.2,0.6-0.6,0.6C42,24,41.8,23.8,41.8,23.5z"/>
	</g>
</g>
<g>
	<g>
		<path fill="#1BA4D0" d="M23.4,31.9h-6.6c-0.9,0-1.7-0.7-1.7-1.7v-3.9c0-0.9,0.7-1.7,1.7-1.7h6.6c0.9,0,1.7,0.7,1.7,1.7v3.9
			C25,31.2,24.3,31.9,23.4,31.9z M16.7,25.9c-0.3,0-0.6,0.2-0.6,0.6v3.9c0,0.3,0.2,0.6,0.6,0.6h6.6c0.3,0,0.6-0.2,0.6-0.6v-3.9
			c0-0.3-0.2-0.6-0.6-0.6H16.7z"/>
	</g>
	<g>
		<path fill="#1BA4D0" d="M11.8,23.5v-0.4c0-1.8,1.5-3.3,3.3-3.3s3.3,1.5,3.3,3.3v2.2c0,0.3-0.2,0.6-0.6,0.6s-0.6-0.2-0.6-0.6v-2.2
			c0-1.2-1-2.2-2.2-2.2s-2.2,1-2.2,2.2v0.4c0,0.3-0.2,0.6-0.6,0.6C12,24,11.8,23.8,11.8,23.5z"/>
	</g>
</g>
<g>
	<g>
		<path fill="#686868" d="M90.7,102.3c-0.8,0-1.5-0.7-1.5-1.5v-3.1c0-2.5-2.1-4.6-4.6-4.6H72.3c-2.5,0-4.6,2.1-4.6,4.6v3.1
			c0,0.8-0.7,1.5-1.5,1.5c-0.8,0-1.5-0.7-1.5-1.5v-3.1c0-4.2,3.4-7.7,7.7-7.7h12.3c4.2,0,7.7,3.4,7.7,7.7v3.1
			C92.2,101.6,91.5,102.3,90.7,102.3z"/>
	</g>
	<g>
		<path fill="#686868" d="M78.4,86.9c-4.2,0-7.7-3.4-7.7-7.7c0-4.2,3.4-7.7,7.7-7.7s7.7,3.4,7.7,7.7C86.1,83.5,82.6,86.9,78.4,86.9z
			 M78.4,74.7c-2.5,0-4.6,2.1-4.6,4.6s2.1,4.6,4.6,4.6s4.6-2.1,4.6-4.6S80.9,74.7,78.4,74.7z"/>
	</g>
</g>
<g>
	<path fill="#D93F33" d="M91.3,72.1c-0.2,0-0.3-0.1-0.4-0.2c-0.1-0.2-0.1-0.5,0.2-0.7l47.1-28c0.2-0.1,0.5-0.1,0.7,0.2
		c0.1,0.2,0.1,0.5-0.2,0.7L91.5,72C91.5,72.1,91.4,72.1,91.3,72.1z"/>
</g>
<g>
	<path fill="#D93F33" d="M88.1,68.3c-0.1,0-0.2,0-0.3-0.1c-0.2-0.2-0.2-0.5-0.1-0.7L108,43.3c0.2-0.2,0.5-0.2,0.7-0.1
		c0.2,0.2,0.2,0.5,0.1,0.7L88.4,68.1C88.3,68.2,88.2,68.3,88.1,68.3z"/>
</g>
<g>
	<path fill="#B2B3B3" d="M38.2,71.3c-0.2,0-0.3-0.1-0.4-0.2c-0.2-0.2-0.1-0.5,0.1-0.7l40.2-27.2c0.2-0.2,0.5-0.1,0.7,0.1
		c0.2,0.2,0.1,0.5-0.1,0.7L38.5,71.3C38.4,71.3,38.3,71.3,38.2,71.3z"/>
</g>
<g>
	<path fill="#B2B3B3" d="M33.6,66.7c-0.1,0-0.2,0-0.3-0.1c-0.2-0.2-0.3-0.5-0.1-0.7L48,43.3c0.2-0.2,0.5-0.3,0.7-0.1
		c0.2,0.2,0.3,0.5,0.1,0.7L34,66.4C33.9,66.6,33.8,66.7,33.6,66.7z"/>
</g>
<g>
	<path fill="#B2B3B3" d="M22.1,64.4c-0.2,0-0.4-0.2-0.5-0.4l-3.8-20.3c-0.1-0.3,0.1-0.5,0.4-0.6c0.3-0.1,0.5,0.1,0.6,0.4l3.8,20.3
		C22.7,64,22.5,64.3,22.1,64.4C22.2,64.4,22.2,64.4,22.1,64.4z"/>
</g>
<g>
	<path fill="#686868" d="M104.5,117.7H51.9v-9h52.6V117.7z M52.9,116.7h50.6v-7H52.9V116.7z"/>
</g>
<g>
	<path fill="#686868" d="M104.5,125.7H51.9v-9h52.6V125.7z M52.9,124.7h50.6v-7H52.9V124.7z"/>
</g>
<g>
	<path fill="#686868" d="M75.3,111.3v2.4c0,0.9,0.4,1.3,0.9,1.3c0.6,0,1-0.4,1-1.3v-2.4h0.5v2.4c0,1.2-0.7,1.8-1.5,1.8
		c-0.8,0-1.5-0.5-1.5-1.7v-2.4H75.3z"/>
	<path fill="#686868" d="M78.6,115.3v-4h0.6l1.3,2c0.3,0.5,0.5,0.9,0.7,1.3l0,0c0-0.5-0.1-1-0.1-1.7v-1.7h0.5v4h-0.5l-1.3-2.1
		c-0.3-0.4-0.6-0.9-0.8-1.3l0,0c0,0.5,0,1,0,1.7v1.7H78.6z"/>
</g>
<g>
	<path fill="#686868" d="M72.5,119.4c0.3,0,0.6-0.1,1-0.1c0.5,0,0.9,0.1,1.1,0.3c0.2,0.2,0.4,0.5,0.4,0.8c0,0.4-0.1,0.7-0.3,0.9
		c-0.3,0.3-0.7,0.4-1.2,0.4c-0.2,0-0.3,0-0.4,0v1.6h-0.5V119.4z M73.1,121.3c0.1,0,0.3,0,0.4,0c0.6,0,1-0.3,1-0.9
		c0-0.5-0.4-0.8-1-0.8c-0.2,0-0.4,0-0.5,0V121.3z"/>
	<path fill="#686868" d="M76.4,123.4l-1-4h0.6l0.5,2c0.1,0.5,0.2,1,0.3,1.4h0c0.1-0.4,0.2-0.9,0.3-1.4l0.5-2h0.5l0.5,2.1
		c0.1,0.5,0.2,1,0.3,1.4h0c0.1-0.4,0.2-0.9,0.3-1.4l0.5-2h0.5l-1.1,4h-0.5l-0.5-2.1c-0.1-0.5-0.2-0.9-0.3-1.3h0
		c-0.1,0.4-0.2,0.8-0.3,1.3l-0.6,2.1H76.4z"/>
	<path fill="#686868" d="M80.8,119.4c0.3,0,0.7-0.1,1.1-0.1c0.8,0,1.3,0.2,1.6,0.5c0.4,0.3,0.6,0.8,0.6,1.5c0,0.7-0.2,1.2-0.6,1.6
		c-0.4,0.4-1,0.6-1.8,0.6c-0.4,0-0.7,0-0.9,0V119.4z M81.3,122.9c0.1,0,0.3,0,0.5,0c1.1,0,1.7-0.6,1.7-1.7c0-1-0.5-1.6-1.6-1.6
		c-0.3,0-0.5,0-0.6,0.1V122.9z"/>
</g>
<g>
	<g>
		<path fill="#D93F33" d="M62.3,131.1c-0.3,0-0.6-0.1-0.8-0.4c-0.4-0.4-0.3-1.1,0.1-1.4l29.9-24.8c0.4-0.4,1.1-0.3,1.4,0.1
			c0.4,0.4,0.3,1.1-0.1,1.4l-29.9,24.8C62.7,131,62.5,131.1,62.3,131.1z"/>
	</g>
	<g>
		<path fill="#D93F33" d="M92.2,131.1c-0.2,0-0.5-0.1-0.6-0.2L61.6,106c-0.4-0.4-0.5-1-0.1-1.4c0.4-0.4,1-0.5,1.4-0.1l29.9,24.8
			c0.4,0.4,0.5,1,0.1,1.4C92.8,131,92.5,131.1,92.2,131.1z"/>
	</g>
</g>
<g>
	<path fill="#D93F33" d="M121.9,41c-0.3,0-0.5-0.1-0.7-0.3l-27-28.2c-0.4-0.4-0.4-1,0-1.4c0.4-0.4,1-0.4,1.4,0l27,28.2
		c0.4,0.4,0.4,1,0,1.4C122.4,40.9,122.1,41,121.9,41z"/>
</g>
<g>
	<g>
		<path fill="#D93F33" d="M94.9,41c-0.2,0-0.5-0.1-0.7-0.3c-0.4-0.4-0.4-1,0-1.4l27-28.2c0.4-0.4,1-0.4,1.4,0c0.4,0.4,0.4,1,0,1.4
			l-27,28.2C95.4,40.9,95.2,41,94.9,41z"/>
	</g>
	<g>
		<path fill="#D93F33" d="M121.9,41c-0.3,0-0.5-0.1-0.7-0.3l-27-28.2c-0.4-0.4-0.4-1,0-1.4c0.4-0.4,1-0.4,1.4,0l27,28.2
			c0.4,0.4,0.4,1,0,1.4C122.4,40.9,122.1,41,121.9,41z"/>
	</g>
</g>
<g>
	<g>
		<path fill="#D93F33" d="M124.9,41c-0.2,0-0.5-0.1-0.7-0.3c-0.4-0.4-0.4-1,0-1.4l27-28.2c0.4-0.4,1-0.4,1.4,0c0.4,0.4,0.4,1,0,1.4
			l-27,28.2C125.4,40.9,125.2,41,124.9,41z"/>
	</g>
	<g>
		<path fill="#D93F33" d="M151.9,41c-0.3,0-0.5-0.1-0.7-0.3l-27-28.2c-0.4-0.4-0.4-1,0-1.4c0.4-0.4,1-0.4,1.4,0l27,28.2
			c0.4,0.4,0.4,1,0,1.4C152.4,40.9,152.1,41,151.9,41z"/>
	</g>
</g>
<g>
	<g>
		<path fill="#23A4CF" d="M37.3,102.3c-0.8,0-1.5-0.7-1.5-1.5v-3.1c0-2.5-2.1-4.6-4.6-4.6H18.9c-2.5,0-4.6,2.1-4.6,4.6v3.1
			c0,0.8-0.7,1.5-1.5,1.5s-1.5-0.7-1.5-1.5v-3.1c0-4.2,3.4-7.7,7.7-7.7h12.3c4.2,0,7.7,3.4,7.7,7.7v3.1
			C38.8,101.6,38.1,102.3,37.3,102.3z"/>
	</g>
	<g>
		<path fill="#23A4CF" d="M25,86.9c-4.2,0-7.7-3.4-7.7-7.7c0-4.2,3.4-7.7,7.7-7.7s7.7,3.4,7.7,7.7C32.7,83.5,29.2,86.9,25,86.9z
			 M25,74.7c-2.5,0-4.6,2.1-4.6,4.6s2.1,4.6,4.6,4.6s4.6-2.1,4.6-4.6S27.5,74.7,25,74.7z"/>
	</g>
</g>
<g>
	<g>
		<path fill="#D93F33" d="M63.4,100.4c-0.3,0-0.6-0.1-0.8-0.4c-0.4-0.4-0.3-1.1,0.1-1.4l29.9-24.8c0.4-0.4,1.1-0.3,1.4,0.1
			c0.4,0.4,0.3,1.1-0.1,1.4l-29.9,24.8C63.9,100.3,63.7,100.4,63.4,100.4z"/>
	</g>
	<g>
		<path fill="#D93F33" d="M93.4,100.4c-0.2,0-0.5-0.1-0.6-0.2L62.8,75.3c-0.4-0.4-0.5-1-0.1-1.4c0.4-0.4,1-0.5,1.4-0.1L94,98.6
			c0.4,0.4,0.5,1,0.1,1.4C93.9,100.2,93.6,100.4,93.4,100.4z"/>
	</g>
</g>
</svg>
