<?xml version="1.0" encoding="utf-8"?>
<!-- Generator: Adobe Illustrator 18.0.0, SVG Export Plug-In . SVG Version: 6.00 Build 0)  -->
<!DOCTYPE svg PUBLIC "-//W3C//DTD SVG 1.1//EN" "http://www.w3.org/Graphics/SVG/1.1/DTD/svg11.dtd">
<svg version="1.1" id="Layer_1" xmlns="http://www.w3.org/2000/svg" xmlns:xlink="http://www.w3.org/1999/xlink" x="0px" y="0px"
	 viewBox="0 0 160 137" enable-background="new 0 0 160 137" xml:space="preserve">
<g>
	<g>
		<path fill="#23A4CF" d="M30.8,38.5H6V13.6h24.8V38.5z M8,36.5h20.8V15.6H8V36.5z"/>
	</g>
	<g>
		<path fill="#23A4CF" d="M60.8,38.5H36V13.6h24.8V38.5z M38,36.5h20.8V15.6H38V36.5z"/>
	</g>
	<g>
		<path fill="#23A4CF" d="M90.8,38.5H66V13.6h24.8V38.5z M68,36.5h20.8V15.6H68V36.5z"/>
	</g>
	<g>
		<path fill="#23A4CF" d="M120.8,38.5H96V13.6h24.8V38.5z M98,36.5h20.8V15.6H98V36.5z"/>
	</g>
	<g>
		<path fill="#23A4CF" d="M150.8,38.5H126V13.6h24.8V38.5z M128,36.5h20.8V15.6H128V36.5z"/>
	</g>
	<g>
		<g>
			<path fill="#1BA4D0" d="M141.9,31.1h-6.9c-0.8,0-1.5-0.7-1.5-1.5v-3.5c0-0.8,0.7-1.5,1.5-1.5h6.9c0.8,0,1.5,0.7,1.5,1.5v3.5
				C143.3,30.4,142.7,31.1,141.9,31.1z M134.9,25.6c-0.3,0-0.5,0.2-0.5,0.5v3.5c0,0.3,0.2,0.5,0.5,0.5h6.9c0.3,0,0.5-0.2,0.5-0.5
				v-3.5c0-0.3-0.2-0.5-0.5-0.5H134.9z"/>
		</g>
		<g>
			<path fill="#1BA4D0" d="M140.9,25.6c-0.3,0-0.5-0.2-0.5-0.5v-2c0-1.1-0.9-2-2-2c-1.1,0-2,0.9-2,2v2c0,0.3-0.2,0.5-0.5,0.5
				c-0.3,0-0.5-0.2-0.5-0.5v-2c0-1.6,1.3-3,3-3s3,1.3,3,3v2C141.4,25.4,141.1,25.6,140.9,25.6z"/>
		</g>
	</g>
	<g>
		<g>
			<path fill="#1BA4D0" d="M111.9,31.1h-6.9c-0.8,0-1.5-0.7-1.5-1.5v-3.5c0-0.8,0.7-1.5,1.5-1.5h6.9c0.8,0,1.5,0.7,1.5,1.5v3.5
				C113.3,30.4,112.7,31.1,111.9,31.1z M104.9,25.6c-0.3,0-0.5,0.2-0.5,0.5v3.5c0,0.3,0.2,0.5,0.5,0.5h6.9c0.3,0,0.5-0.2,0.5-0.5
				v-3.5c0-0.3-0.2-0.5-0.5-0.5H104.9z"/>
		</g>
		<g>
			<path fill="#1BA4D0" d="M110.9,25.6c-0.3,0-0.5-0.2-0.5-0.5v-2c0-1.1-0.9-2-2-2c-1.1,0-2,0.9-2,2v2c0,0.3-0.2,0.5-0.5,0.5
				s-0.5-0.2-0.5-0.5v-2c0-1.6,1.3-3,3-3c1.6,0,3,1.3,3,3v2C111.4,25.4,111.1,25.6,110.9,25.6z"/>
		</g>
	</g>
	<g>
		<g>
			<path fill="#1BA4D0" d="M83.4,32.1h-6.6c-0.9,0-1.7-0.7-1.7-1.7v-3.9c0-0.9,0.7-1.7,1.7-1.7h6.6c0.9,0,1.7,0.7,1.7,1.7v3.9
				C85,31.4,84.3,32.1,83.4,32.1z M76.7,26.1c-0.3,0-0.6,0.2-0.6,0.6v3.9c0,0.3,0.2,0.6,0.6,0.6h6.6c0.3,0,0.6-0.2,0.6-0.6v-3.9
				c0-0.3-0.2-0.6-0.6-0.6H76.7z"/>
		</g>
		<g>
			<path fill="#1BA4D0" d="M71.8,23.7v-0.4c0-1.8,1.5-3.3,3.3-3.3c1.8,0,3.3,1.5,3.3,3.3v2.2c0,0.3-0.2,0.6-0.6,0.6
				s-0.6-0.2-0.6-0.6v-2.2c0-1.2-1-2.2-2.2-2.2c-1.2,0-2.2,1-2.2,2.2v0.4c0,0.3-0.2,0.6-0.6,0.6S71.8,24,71.8,23.7z"/>
		</g>
	</g>
	<g>
		<g>
			<path fill="#1BA4D0" d="M53.4,32.1h-6.6c-0.9,0-1.7-0.7-1.7-1.7v-3.9c0-0.9,0.7-1.7,1.7-1.7h6.6c0.9,0,1.7,0.7,1.7,1.7v3.9
				C55,31.4,54.3,32.1,53.4,32.1z M46.7,26.1c-0.3,0-0.6,0.2-0.6,0.6v3.9c0,0.3,0.2,0.6,0.6,0.6h6.6c0.3,0,0.6-0.2,0.6-0.6v-3.9
				c0-0.3-0.2-0.6-0.6-0.6H46.7z"/>
		</g>
		<g>
			<path fill="#1BA4D0" d="M41.8,23.7v-0.4c0-1.8,1.5-3.3,3.3-3.3s3.3,1.5,3.3,3.3v2.2c0,0.3-0.2,0.6-0.6,0.6
				c-0.3,0-0.6-0.2-0.6-0.6v-2.2c0-1.2-1-2.2-2.2-2.2c-1.2,0-2.2,1-2.2,2.2v0.4c0,0.3-0.2,0.6-0.6,0.6C42,24.2,41.8,24,41.8,23.7z"
				/>
		</g>
	</g>
	<g>
		<g>
			<path fill="#1BA4D0" d="M23.4,32.1h-6.6c-0.9,0-1.7-0.7-1.7-1.7v-3.9c0-0.9,0.7-1.7,1.7-1.7h6.6c0.9,0,1.7,0.7,1.7,1.7v3.9
				C25,31.4,24.3,32.1,23.4,32.1z M16.7,26.1c-0.3,0-0.6,0.2-0.6,0.6v3.9c0,0.3,0.2,0.6,0.6,0.6h6.6c0.3,0,0.6-0.2,0.6-0.6v-3.9
				c0-0.3-0.2-0.6-0.6-0.6H16.7z"/>
		</g>
		<g>
			<path fill="#1BA4D0" d="M11.8,23.7v-0.4c0-1.8,1.5-3.3,3.3-3.3s3.3,1.5,3.3,3.3v2.2c0,0.3-0.2,0.6-0.6,0.6s-0.6-0.2-0.6-0.6v-2.2
				c0-1.2-1-2.2-2.2-2.2s-2.2,1-2.2,2.2v0.4c0,0.3-0.2,0.6-0.6,0.6C12,24.2,11.8,24,11.8,23.7z"/>
		</g>
	</g>
	<g>
		<g>
			<path fill="#686868" d="M90.7,102.5c-0.8,0-1.5-0.7-1.5-1.5v-3.1c0-2.5-2.1-4.6-4.6-4.6H72.3c-2.5,0-4.6,2.1-4.6,4.6v3.1
				c0,0.8-0.7,1.5-1.5,1.5s-1.5-0.7-1.5-1.5v-3.1c0-4.2,3.4-7.7,7.7-7.7h12.3c4.2,0,7.7,3.4,7.7,7.7v3.1
				C92.2,101.8,91.5,102.5,90.7,102.5z"/>
		</g>
		<g>
			<path fill="#686868" d="M78.4,87.1c-4.2,0-7.7-3.4-7.7-7.7s3.4-7.7,7.7-7.7c4.2,0,7.7,3.4,7.7,7.7S82.6,87.1,78.4,87.1z
				 M78.4,74.9c-2.5,0-4.6,2.1-4.6,4.6s2.1,4.6,4.6,4.6c2.5,0,4.6-2.1,4.6-4.6S80.9,74.9,78.4,74.9z"/>
		</g>
	</g>
	<g>
		<path fill="#D93F33" d="M91.3,72.3c-0.2,0-0.3-0.1-0.4-0.2c-0.1-0.2-0.1-0.5,0.2-0.7l47.1-28c0.2-0.1,0.5-0.1,0.7,0.2
			c0.1,0.2,0.1,0.5-0.2,0.7l-47.1,28C91.5,72.3,91.4,72.3,91.3,72.3z"/>
	</g>
	<g>
		<path fill="#D93F33" d="M88.1,68.5c-0.1,0-0.2,0-0.3-0.1c-0.2-0.2-0.2-0.5-0.1-0.7L108,43.5c0.2-0.2,0.5-0.2,0.7-0.1
			c0.2,0.2,0.2,0.5,0.1,0.7L88.4,68.3C88.3,68.4,88.2,68.5,88.1,68.5z"/>
	</g>
	<g>
		<path fill="#D93F33" d="M78.4,65c-0.3,0-0.5-0.2-0.5-0.5V43.8c0-0.3,0.2-0.5,0.5-0.5s0.5,0.2,0.5,0.5v20.7
			C78.9,64.7,78.7,65,78.4,65z"/>
	</g>
	<g>
		<path fill="#D93F33" d="M68.7,68.5c-0.1,0-0.3-0.1-0.4-0.2L48,44.1c-0.2-0.2-0.2-0.5,0.1-0.7c0.2-0.2,0.5-0.2,0.7,0.1l20.3,24.2
			c0.2,0.2,0.2,0.5-0.1,0.7C69,68.4,68.9,68.5,68.7,68.5z"/>
	</g>
	<g>
		<path fill="#D93F33" d="M65.5,72.3c-0.1,0-0.2,0-0.3-0.1l-47.1-28c-0.2-0.1-0.3-0.4-0.2-0.7c0.1-0.2,0.4-0.3,0.7-0.2l47.1,28
			c0.2,0.1,0.3,0.4,0.2,0.7C65.8,72.2,65.7,72.3,65.5,72.3z"/>
	</g>
	<g>
		<path fill="#686868" d="M104.5,117.9H51.9v-9h52.6V117.9z M52.9,116.9h50.6v-7H52.9V116.9z"/>
	</g>
	<g>
		<path fill="#686868" d="M104.5,125.9H51.9v-9h52.6V125.9z M52.9,124.9h50.6v-7H52.9V124.9z"/>
	</g>
	<g>
		<path fill="#686868" d="M75.3,111.5v2.4c0,0.9,0.4,1.3,0.9,1.3c0.6,0,1-0.4,1-1.3v-2.4h0.5v2.4c0,1.2-0.7,1.8-1.5,1.8
			c-0.8,0-1.5-0.5-1.5-1.7v-2.4H75.3z"/>
		<path fill="#686868" d="M78.6,115.5v-4h0.6l1.3,2c0.3,0.5,0.5,0.9,0.7,1.3l0,0c0-0.5-0.1-1-0.1-1.7v-1.7h0.5v4h-0.5l-1.3-2.1
			c-0.3-0.4-0.6-0.9-0.8-1.3l0,0c0,0.5,0,1,0,1.7v1.7H78.6z"/>
	</g>
	<g>
		<path fill="#686868" d="M72.5,119.6c0.3,0,0.6-0.1,1-0.1c0.5,0,0.9,0.1,1.1,0.3c0.2,0.2,0.4,0.5,0.4,0.8c0,0.4-0.1,0.7-0.3,0.9
			c-0.3,0.3-0.7,0.4-1.2,0.4c-0.2,0-0.3,0-0.4,0v1.6h-0.5V119.6z M73.1,121.5c0.1,0,0.3,0,0.4,0c0.6,0,1-0.3,1-0.9
			c0-0.5-0.4-0.8-1-0.8c-0.2,0-0.4,0-0.5,0V121.5z"/>
		<path fill="#686868" d="M76.4,123.6l-1-4h0.6l0.5,2c0.1,0.5,0.2,1,0.3,1.4h0c0.1-0.4,0.2-0.9,0.3-1.4l0.5-2h0.5l0.5,2.1
			c0.1,0.5,0.2,1,0.3,1.4h0c0.1-0.4,0.2-0.9,0.3-1.4l0.5-2h0.5l-1.1,4h-0.5l-0.5-2.1c-0.1-0.5-0.2-0.9-0.3-1.3h0
			c-0.1,0.4-0.2,0.8-0.3,1.3l-0.6,2.1H76.4z"/>
		<path fill="#686868" d="M80.8,119.6c0.3,0,0.7-0.1,1.1-0.1c0.8,0,1.3,0.2,1.6,0.5c0.4,0.3,0.6,0.8,0.6,1.5c0,0.7-0.2,1.2-0.6,1.6
			c-0.4,0.4-1,0.6-1.8,0.6c-0.4,0-0.7,0-0.9,0V119.6z M81.3,123.1c0.1,0,0.3,0,0.5,0c1.1,0,1.7-0.6,1.7-1.7c0-1-0.5-1.6-1.6-1.6
			c-0.3,0-0.5,0-0.6,0.1V123.1z"/>
	</g>
	<g>
		<g>
			<path fill="#D93F33" d="M62.3,131.3c-0.3,0-0.6-0.1-0.8-0.4c-0.4-0.4-0.3-1.1,0.1-1.4l29.9-24.8c0.4-0.4,1.1-0.3,1.4,0.1
				c0.4,0.4,0.3,1.1-0.1,1.4l-29.9,24.8C62.7,131.2,62.5,131.3,62.3,131.3z"/>
		</g>
		<g>
			<path fill="#D93F33" d="M92.2,131.3c-0.2,0-0.5-0.1-0.6-0.2l-29.9-24.8c-0.4-0.4-0.5-1-0.1-1.4c0.4-0.4,1-0.5,1.4-0.1l29.9,24.8
				c0.4,0.4,0.5,1,0.1,1.4C92.8,131.2,92.5,131.3,92.2,131.3z"/>
		</g>
	</g>
	<g>
		<path fill="#D93F33" d="M121.9,41.2c-0.3,0-0.5-0.1-0.7-0.3l-27-28.2c-0.4-0.4-0.4-1,0-1.4c0.4-0.4,1-0.4,1.4,0l27,28.2
			c0.4,0.4,0.4,1,0,1.4C122.4,41.1,122.1,41.2,121.9,41.2z"/>
	</g>
	<g>
		<g>
			<path fill="#D93F33" d="M94.9,41.2c-0.2,0-0.5-0.1-0.7-0.3c-0.4-0.4-0.4-1,0-1.4l27-28.2c0.4-0.4,1-0.4,1.4,0
				c0.4,0.4,0.4,1,0,1.4l-27,28.2C95.4,41.1,95.2,41.2,94.9,41.2z"/>
		</g>
		<g>
			<path fill="#D93F33" d="M121.9,41.2c-0.3,0-0.5-0.1-0.7-0.3l-27-28.2c-0.4-0.4-0.4-1,0-1.4c0.4-0.4,1-0.4,1.4,0l27,28.2
				c0.4,0.4,0.4,1,0,1.4C122.4,41.1,122.1,41.2,121.9,41.2z"/>
		</g>
	</g>
	<g>
		<g>
			<path fill="#D93F33" d="M124.9,41.2c-0.2,0-0.5-0.1-0.7-0.3c-0.4-0.4-0.4-1,0-1.4l27-28.2c0.4-0.4,1-0.4,1.4,0
				c0.4,0.4,0.4,1,0,1.4l-27,28.2C125.4,41.1,125.2,41.2,124.9,41.2z"/>
		</g>
		<g>
			<path fill="#D93F33" d="M151.9,41.2c-0.3,0-0.5-0.1-0.7-0.3l-27-28.2c-0.4-0.4-0.4-1,0-1.4c0.4-0.4,1-0.4,1.4,0l27,28.2
				c0.4,0.4,0.4,1,0,1.4C152.4,41.1,152.1,41.2,151.9,41.2z"/>
		</g>
	</g>
	<g>
		<g>
			<path fill="#D93F33" d="M34.9,41.2c-0.2,0-0.5-0.1-0.7-0.3c-0.4-0.4-0.4-1,0-1.4l27-28.2c0.4-0.4,1-0.4,1.4,0
				c0.4,0.4,0.4,1,0,1.4l-27,28.2C35.4,41.1,35.2,41.2,34.9,41.2z"/>
		</g>
		<g>
			<path fill="#D93F33" d="M61.9,41.2c-0.3,0-0.5-0.1-0.7-0.3l-27-28.2c-0.4-0.4-0.4-1,0-1.4c0.4-0.4,1-0.4,1.4,0l27,28.2
				c0.4,0.4,0.4,1,0,1.4C62.4,41.1,62.1,41.2,61.9,41.2z"/>
		</g>
	</g>
	<g>
		<g>
			<path fill="#D93F33" d="M4.9,41.2c-0.2,0-0.5-0.1-0.7-0.3c-0.4-0.4-0.4-1,0-1.4l27-28.2c0.4-0.4,1-0.4,1.4,0c0.4,0.4,0.4,1,0,1.4
				l-27,28.2C5.4,41.1,5.2,41.2,4.9,41.2z"/>
		</g>
		<g>
			<path fill="#D93F33" d="M31.9,41.2c-0.3,0-0.5-0.1-0.7-0.3l-27-28.2c-0.4-0.4-0.4-1,0-1.4c0.4-0.4,1-0.4,1.4,0l27,28.2
				c0.4,0.4,0.4,1,0,1.4C32.4,41.1,32.1,41.2,31.9,41.2z"/>
		</g>
	</g>
	<g>
		<g>
			<path fill="#D93F33" d="M64.9,41.2c-0.2,0-0.5-0.1-0.7-0.3c-0.4-0.4-0.4-1,0-1.4l27-28.2c0.4-0.4,1-0.4,1.4,0
				c0.4,0.4,0.4,1,0,1.4l-27,28.2C65.4,41.1,65.2,41.2,64.9,41.2z"/>
		</g>
		<g>
			<path fill="#D93F33" d="M91.9,41.2c-0.3,0-0.5-0.1-0.7-0.3l-27-28.2c-0.4-0.4-0.4-1,0-1.4c0.4-0.4,1-0.4,1.4,0l27,28.2
				c0.4,0.4,0.4,1,0,1.4C92.4,41.1,92.1,41.2,91.9,41.2z"/>
		</g>
	</g>
	<g>
		<g>
			<path fill="#D93F33" d="M63.4,100.5c-0.3,0-0.6-0.1-0.8-0.4c-0.4-0.4-0.3-1.1,0.1-1.4l29.9-24.8c0.4-0.4,1.1-0.3,1.4,0.1
				s0.3,1.1-0.1,1.4l-29.9,24.8C63.9,100.5,63.7,100.5,63.4,100.5z"/>
		</g>
		<g>
			<path fill="#D93F33" d="M93.4,100.5c-0.2,0-0.5-0.1-0.6-0.2L62.8,75.5c-0.4-0.4-0.5-1-0.1-1.4c0.4-0.4,1-0.5,1.4-0.1L94,98.8
				c0.4,0.4,0.5,1,0.1,1.4C93.9,100.4,93.6,100.5,93.4,100.5z"/>
		</g>
	</g>
</g>
</svg>
