<svg width="20" height="20" viewBox="0 0 20 20" fill="none" xmlns="http://www.w3.org/2000/svg">
<path d="M15.8333 18.3333C15.6625 18.3333 15.4933 18.2816 15.3491 18.1775L9.99998 14.3575L4.65081 18.1783C4.39748 18.3608 4.06248 18.385 3.78498 18.2416C3.50748 18.0983 3.33331 17.8125 3.33331 17.5V4.16663C3.33331 2.78829 4.45498 1.66663 5.83331 1.66663H14.1666C15.545 1.66663 16.6666 2.78829 16.6666 4.16663V17.5C16.6666 17.8125 16.4925 18.0983 16.215 18.2416C16.0941 18.3025 15.9633 18.3333 15.8333 18.3333ZM9.99998 12.5C10.17 12.5 10.3391 12.5516 10.4841 12.6558L15 15.8808V4.16663C15 3.70746 14.6266 3.33329 14.1666 3.33329H5.83331C5.37415 3.33329 4.99998 3.70746 4.99998 4.16663V15.8808L9.51581 12.6558C9.66081 12.5516 9.82998 12.5 9.99998 12.5Z" fill="#3FB1D6"/>
<path d="M9.99998 12.5C10.17 12.5 10.3391 12.5516 10.4841 12.6558L15 15.8808V4.16663C15 3.70746 14.6266 3.33329 14.1666 3.33329H5.83331C5.37415 3.33329 4.99998 3.70746 4.99998 4.16663V15.8808L9.51581 12.6558C9.66081 12.5516 9.82998 12.5 9.99998 12.5Z" fill="#3FB1D6"/>
</svg>
