<svg width="20" height="20" viewBox="0 0 20 20" fill="none" xmlns="http://www.w3.org/2000/svg">
<path d="M10.3758 18.5275C10.155 18.5275 9.94248 18.44 9.78665 18.2833L2.41998 10.9166C1.39665 9.89329 0.833313 8.53329 0.833313 7.08579C0.833313 5.63829 1.39665 4.27829 2.41998 3.25496C3.44331 2.23163 4.80331 1.66829 6.25081 1.66829C7.69831 1.66829 9.05831 2.23163 10.0816 3.25496L10.3758 3.54829L10.67 3.25413C10.675 3.24829 10.6808 3.24329 10.6866 3.23746C11.7083 2.22496 13.0616 1.66663 14.5016 1.66663C15.9483 1.66663 17.3091 2.23079 18.3325 3.25413L18.3341 3.25579C20.4458 5.36829 20.445 8.80496 18.3325 10.9166L10.9658 18.2833C10.8091 18.44 10.5966 18.5275 10.3758 18.5275ZM6.25081 3.33579C5.28998 3.33579 4.32998 3.70163 3.59831 4.43329C2.13581 5.89579 2.13581 8.27579 3.59831 9.73829L10.3758 16.5158L17.1533 9.73829C17.8625 9.02996 18.2516 8.08829 18.2525 7.08663C18.2525 6.08496 17.8625 5.14329 17.155 4.43496L17.1533 4.43329C16.445 3.72496 15.5041 3.33496 14.5016 3.33413C13.5 3.33413 12.5575 3.72413 11.8491 4.43163C11.8458 4.43496 11.8425 4.43746 11.8391 4.44079L10.9641 5.31579C10.6516 5.62829 10.0983 5.62829 9.78581 5.31579L8.90248 4.43246C8.17165 3.70163 7.21165 3.33579 6.25081 3.33579Z" fill="#3FB1D6"/>
<path d="M6.25081 3.33579C5.28998 3.33579 4.32998 3.70163 3.59831 4.43329C2.13581 5.89579 2.13581 8.27579 3.59831 9.73829L10.3758 16.5158L17.1533 9.73829C17.8625 9.02996 18.2516 8.08829 18.2525 7.08663C18.2525 6.08496 17.8625 5.14329 17.155 4.43496L17.1533 4.43329C16.445 3.72496 15.5041 3.33496 14.5016 3.33413C13.5 3.33413 12.5575 3.72413 11.8491 4.43163C11.8458 4.43496 11.8425 4.43746 11.8391 4.44079L10.9641 5.31579C10.6516 5.62829 10.0983 5.62829 9.78581 5.31579L8.90248 4.43246C8.17165 3.70163 7.21165 3.33579 6.25081 3.33579Z" fill="#3FB1D6"/>
</svg>
