<?xml version="1.0" encoding="utf-8"?>
<!-- Generator: Adobe Illustrator 22.1.0, SVG Export Plug-In . SVG Version: 6.00 Build 0)  -->
<svg version="1.1" id="Layer_1" xmlns="http://www.w3.org/2000/svg" xmlns:xlink="http://www.w3.org/1999/xlink" x="0px" y="0px"
	 viewBox="0 0 143 29" style="enable-background:new 0 0 143 29;" xml:space="preserve">
<style type="text/css">
	.st0{fill:#8AC1CE;}
	.st1{fill:#FFFFFF;}
</style>
<path class="st0" d="M23.8,11.6H5.9v5.8h17.8V11.6z"/>
<path class="st0" d="M23.7,23.2H5.9V29h17.8V23.2z"/>
<path class="st0" d="M23.7,0H5.9v5.8h17.8V0z"/>
<path class="st1" d="M29.6,5.8h-5.9V29h5.9V5.8z"/>
<path class="st1" d="M5.9,17.4H0v5.8h5.9V17.4z"/>
<path class="st1" d="M35.6,5.8h2.6v4.3h5V5.8h2.6v11.4h-2.6v-4.9h-5v4.9h-2.6V5.8z"/>
<path class="st1" d="M48.3,5.8h7.9v2.3h-5.4v2.1h5.1v2.3h-5.1V15h5.7v2.3h-8.2V5.8z"/>
<path class="st1" d="M60.8,8.1h-3.3V5.8h9.3v2.2h-3.3v9.2h-2.6V8.1z"/>
<path class="st1" d="M77.8,9.2l-1.4,3.6h2.9L77.8,9.2z M76.8,5.8h2.1L84,17.3h-2.9l-1-2.4h-4.5l-1,2.4h-2.8L76.8,5.8z"/>
<path class="st1" d="M87.8,10.6h1.5c0.2,0,0.5,0,0.7,0c0.3,0,0.5-0.1,0.7-0.1c0.2-0.1,0.4-0.2,0.5-0.4c0.1-0.2,0.2-0.4,0.2-0.7
	c0-0.3-0.1-0.5-0.2-0.7c-0.1-0.2-0.3-0.3-0.5-0.4c-0.2-0.1-0.4-0.2-0.6-0.2c-0.2,0-0.5,0-0.7,0h-1.7V10.6z M85.2,5.8h4.5
	c0.6,0,1.2,0.1,1.7,0.2c0.5,0.1,1,0.3,1.4,0.6c0.4,0.3,0.7,0.6,1,1.1c0.2,0.4,0.4,1,0.4,1.7c0,0.8-0.2,1.5-0.6,2.1s-1.1,0.9-1.9,1.1
	l3,4.8h-3.1L89,12.7h-1.3v4.6h-2.6V5.8z"/>
<path class="st1" d="M103.5,8.8c-0.3-0.3-0.6-0.5-0.9-0.7c-0.4-0.2-0.8-0.2-1.3-0.2c-0.5,0-0.9,0.1-1.3,0.3
	c-0.4,0.2-0.8,0.4-1.1,0.8c-0.3,0.3-0.5,0.7-0.7,1.2c-0.2,0.5-0.3,0.9-0.3,1.5c0,0.5,0.1,1,0.3,1.5c0.2,0.4,0.4,0.8,0.7,1.2
	c0.3,0.3,0.6,0.6,1,0.8c0.4,0.2,0.8,0.3,1.3,0.3c0.5,0,1-0.1,1.4-0.3c0.4-0.2,0.7-0.5,1-0.9l2.1,1.6c-0.5,0.7-1.1,1.2-1.9,1.5
	c-0.8,0.3-1.5,0.5-2.3,0.5c-0.9,0-1.8-0.1-2.5-0.4c-0.8-0.3-1.4-0.7-2-1.2c-0.6-0.5-1-1.2-1.3-1.9c-0.3-0.7-0.5-1.6-0.5-2.5
	c0-0.9,0.2-1.7,0.5-2.5C96,8.3,96.5,7.7,97,7.2c0.6-0.5,1.2-0.9,2-1.2c0.8-0.3,1.6-0.4,2.5-0.4c0.3,0,0.7,0,1,0.1
	c0.4,0.1,0.7,0.2,1.1,0.3c0.3,0.1,0.7,0.3,1,0.5c0.3,0.2,0.6,0.5,0.9,0.8L103.5,8.8z"/>
<path class="st1" d="M107.2,5.8h2.6v4.3h5V5.8h2.6v11.4h-2.6v-4.9h-5v4.9h-2.6V5.8z"/>
<path class="st1" d="M122.3,5.8h-2.6v11.4h2.6V5.8z"/>
<path class="st1" d="M124.7,5.8h7.9v2.3h-5.4v2.1h5.1v2.3h-5.1V15h5.7v2.3h-8.2V5.8z"/>
<path class="st1" d="M135.2,5.8h7.8v2.3h-5.3v2.3h4.9v2.3h-4.9v4.5h-2.6V5.8z"/>
<path class="st0" d="M36.8,24.8c0,0.4,0.1,0.7,0.2,1c0.1,0.3,0.3,0.6,0.5,0.8c0.2,0.2,0.5,0.4,0.8,0.5c0.3,0.1,0.6,0.2,1,0.2
	c0.4,0,0.7-0.1,1-0.2c0.3-0.1,0.6-0.3,0.8-0.5c0.2-0.2,0.4-0.5,0.5-0.8c0.1-0.3,0.2-0.6,0.2-1c0-0.4-0.1-0.7-0.2-1
	c-0.1-0.3-0.3-0.6-0.5-0.8c-0.2-0.2-0.5-0.4-0.8-0.5c-0.3-0.1-0.6-0.2-1-0.2c-0.4,0-0.7,0.1-1,0.2c-0.3,0.1-0.6,0.3-0.8,0.5
	c-0.2,0.2-0.4,0.5-0.5,0.8C36.9,24.1,36.8,24.4,36.8,24.8z M35,24.8c0-0.6,0.1-1.2,0.3-1.7c0.2-0.5,0.5-0.9,0.9-1.3
	c0.4-0.4,0.8-0.6,1.4-0.8c0.5-0.2,1.1-0.3,1.7-0.3c0.6,0,1.2,0.1,1.7,0.3c0.5,0.2,1,0.5,1.4,0.8c0.4,0.4,0.7,0.8,0.9,1.3
	c0.2,0.5,0.3,1.1,0.3,1.7c0,0.6-0.1,1.2-0.3,1.7c-0.2,0.5-0.5,0.9-0.9,1.3c-0.4,0.4-0.8,0.6-1.4,0.8c-0.5,0.2-1.1,0.3-1.7,0.3
	c-0.6,0-1.2-0.1-1.7-0.3c-0.5-0.2-1-0.5-1.4-0.8c-0.4-0.4-0.7-0.8-0.9-1.3C35.1,26,35,25.4,35,24.8z"/>
<path class="st0" d="M44.7,20.9h2.4l3.4,5.5h0v-5.5h1.8v7.8H50l-3.5-5.6h0v5.6h-1.8V20.9z"/>
<path class="st0" d="M55.6,27.1h0.9c0.4,0,0.8,0,1.1-0.1c0.4-0.1,0.7-0.2,0.9-0.4s0.5-0.4,0.6-0.7c0.1-0.3,0.2-0.7,0.2-1.1
	c0-0.4-0.1-0.7-0.2-1c-0.1-0.3-0.3-0.5-0.6-0.7c-0.2-0.2-0.5-0.3-0.9-0.4c-0.3-0.1-0.7-0.1-1.1-0.1h-1V27.1z M53.8,20.9h2.6
	c0.6,0,1.3,0.1,1.8,0.2c0.6,0.1,1.1,0.4,1.5,0.7c0.4,0.3,0.8,0.7,1,1.2c0.3,0.5,0.4,1.1,0.4,1.8c0,0.6-0.1,1.2-0.4,1.7
	c-0.2,0.5-0.6,0.9-1,1.2c-0.4,0.3-0.9,0.6-1.4,0.7c-0.5,0.2-1.1,0.3-1.7,0.3h-2.9V20.9z"/>
<path class="st0" d="M62.3,20.9h5.4v1.6h-3.7v1.5h3.5v1.6h-3.5v1.6H68v1.6h-5.6V20.9z"/>
<path class="st0" d="M71,24.1h1c0.2,0,0.3,0,0.5,0c0.2,0,0.3,0,0.5-0.1c0.1-0.1,0.3-0.1,0.4-0.3c0.1-0.1,0.1-0.3,0.1-0.5
	c0-0.2,0-0.4-0.1-0.5c-0.1-0.1-0.2-0.2-0.3-0.3c-0.1-0.1-0.3-0.1-0.4-0.1c-0.2,0-0.3,0-0.5,0H71V24.1z M69.3,20.9h3.1
	c0.4,0,0.8,0,1.2,0.1c0.4,0.1,0.7,0.2,1,0.4c0.3,0.2,0.5,0.4,0.7,0.7c0.2,0.3,0.2,0.7,0.2,1.1c0,0.6-0.1,1-0.4,1.4
	c-0.3,0.4-0.7,0.6-1.3,0.7l2,3.3h-2.1l-1.7-3.1H71v3.1h-1.8V20.9z"/>
<path class="st0" d="M75.6,20.9h1.9l1.3,5h0l1.7-5h1.6l1.7,5.2h0l1.3-5.2H87l-2.3,7.8H83l-1.8-5.4h0l-1.8,5.4H78L75.6,20.9z"/>
<path class="st0" d="M89.4,20.9h-1.8v7.8h1.8V20.9z"/>
<path class="st0" d="M95,26.1c0,0.4,0,0.7-0.1,1.1c-0.1,0.3-0.2,0.6-0.4,0.9c-0.2,0.3-0.4,0.5-0.8,0.6c-0.3,0.2-0.8,0.2-1.3,0.2
	c-0.6,0-1.2-0.1-1.6-0.4c-0.4-0.3-0.7-0.8-0.8-1.4l1.6-0.4c0,0.2,0.1,0.4,0.3,0.5c0.2,0.1,0.3,0.2,0.5,0.2c0.2,0,0.4-0.1,0.5-0.1
	c0.1-0.1,0.2-0.2,0.2-0.4c0.1-0.1,0.1-0.3,0.1-0.5c0-0.2,0-0.3,0-0.5v-5H95V26.1z"/>
<path class="st0" d="M100.4,22.8c-0.1-0.2-0.3-0.3-0.6-0.4c-0.2-0.1-0.5-0.1-0.7-0.1c-0.1,0-0.3,0-0.4,0c-0.1,0-0.3,0.1-0.4,0.1
	c-0.1,0.1-0.2,0.1-0.3,0.2c-0.1,0.1-0.1,0.2-0.1,0.4c0,0.2,0.1,0.4,0.3,0.5c0.2,0.1,0.4,0.2,0.7,0.3c0.3,0.1,0.6,0.2,0.9,0.3
	c0.3,0.1,0.6,0.2,0.9,0.4c0.3,0.2,0.5,0.4,0.7,0.7c0.2,0.3,0.3,0.6,0.3,1.1c0,0.4-0.1,0.8-0.2,1.1c-0.2,0.3-0.4,0.6-0.7,0.8
	c-0.3,0.2-0.6,0.4-1,0.5c-0.4,0.1-0.8,0.2-1.2,0.2c-0.5,0-1-0.1-1.4-0.2c-0.4-0.2-0.9-0.4-1.2-0.8l1.3-1.4c0.2,0.2,0.4,0.4,0.7,0.5
	c0.3,0.1,0.6,0.2,0.9,0.2c0.1,0,0.3,0,0.4,0c0.1,0,0.3-0.1,0.4-0.1c0.1-0.1,0.2-0.2,0.3-0.3c0.1-0.1,0.1-0.2,0.1-0.4
	c0-0.2-0.1-0.4-0.3-0.6c-0.2-0.1-0.4-0.3-0.7-0.3c-0.3-0.1-0.6-0.2-0.9-0.3c-0.3-0.1-0.6-0.2-0.9-0.4c-0.3-0.2-0.5-0.4-0.7-0.6
	c-0.2-0.3-0.3-0.6-0.3-1.1c0-0.4,0.1-0.8,0.3-1.1c0.2-0.3,0.4-0.6,0.7-0.8c0.3-0.2,0.6-0.4,1-0.5c0.4-0.1,0.8-0.2,1.1-0.2
	c0.5,0,0.9,0.1,1.3,0.2c0.4,0.1,0.8,0.3,1.1,0.6L100.4,22.8z"/>
</svg>
