<svg width="24" height="24" viewBox="0 0 24 24" fill="none" xmlns="http://www.w3.org/2000/svg">
<path fill-rule="evenodd" clip-rule="evenodd" d="M12 20C16.4183 20 20 16.4183 20 12C20 7.58172 16.4183 4 12 4C7.58172 4 4 7.58172 4 12C4 16.4183 7.58172 20 12 20ZM12 21C16.9706 21 21 16.9706 21 12C21 7.02944 16.9706 3 12 3C7.02944 3 3 7.02944 3 12C3 16.9706 7.02944 21 12 21Z" fill="black"/>
<path d="M7.39473 18.8682L4.6842 8.21035L7.8421 7.42088L8.92105 11.5788L10.4737 6.52614L13.421 6.47353L12.9737 7.89456C14.421 6.86824 16.4561 6.90333 17.5526 7.23667L17.0789 8.97351C15.921 8.89456 13.7684 9.30509 14.421 11.5788C15.0737 13.8525 17.1316 13.1051 18.0789 12.4472L19.1842 13.8946C18.9526 14.5051 17.1053 15.1489 16.2105 15.3946L16.7895 15.9998L13.7632 17.3419L9.21052 12.8946L10.4737 18.0788L7.39473 18.8682Z" fill="black"/>
</svg>
