<svg width="24" height="24" viewBox="0 0 24 24" fill="none" xmlns="http://www.w3.org/2000/svg">
<path d="M15.7091 7.11565C15.7592 6.97066 15.8037 6.87029 15.8371 6.76434C15.9707 6.31267 16.1043 5.85542 16.2323 5.40374C16.4271 4.70671 16.5829 4.83496 15.8093 4.53942C14.4791 4.03756 13.0988 3.89258 11.6795 4.07659C10.4383 4.2383 9.32518 4.65652 8.4124 5.53757C6.85399 7.04315 6.73154 9.78109 8.45136 11.3424C9.26396 12.0785 10.2213 12.5525 11.2342 12.9317C11.9967 13.2216 12.7704 13.4949 13.4049 14.0302C14.2843 14.7718 14.3678 16.1213 13.583 16.9019C13.1433 17.3369 12.5867 17.5376 11.98 17.599C10.5552 17.7551 9.21943 17.4484 7.93931 16.835C7.83356 16.7848 7.73338 16.7347 7.60536 16.6733C7.41056 17.3704 7.24359 18.0395 7.03766 18.6919C6.9486 18.9707 7.03766 19.0823 7.28255 19.1938C8.62946 19.8072 10.0432 20.0302 11.507 19.9968C12.481 19.9745 13.4271 19.8127 14.3177 19.4001C15.9039 18.6696 16.8445 17.4596 16.9837 15.6919C17.1172 13.98 16.466 12.625 15.0078 11.7328C14.262 11.2755 13.4271 10.9688 12.6424 10.5785C12.0079 10.2662 11.3456 9.99299 10.789 9.58034C9.72035 8.78852 9.93185 7.26063 11.1285 6.68627C11.6071 6.45765 12.1192 6.38516 12.6424 6.39073C13.7054 6.39631 14.7184 6.61936 15.7091 7.11565Z" fill="black"/>
</svg>
